<svg xmlns="http://www.w3.org/2000/svg" viewBox="0 -0.5 436 173" shape-rendering="crispEdges">
<metadata>Made with Pixels to Svg https://codepen.io/shshaw/pen/XbxvNj</metadata>
<path stroke="#709146" d="M198 0h2M197 1h1M200 1h1M235 1h1M200 2h1M234 2h1M236 2h1M200 3h1M234 3h1M237 3h1M194 4h1M200 4h1M234 4h1M237 4h1M242 4h1M193 5h1M195 5h1M199 5h1M234 5h1M237 5h1M240 5h1M243 5h1M192 6h1M195 6h1M200 6h1M234 6h1M237 6h1M240 6h1M243 6h1M192 7h1M195 7h1M200 7h1M234 7h2M237 7h1M240 7h1M243 7h1M192 8h1M195 8h1M200 8h1M235 8h1M237 8h1M242 8h1M192 9h1M195 9h1M240 9h1M243 9h1M192 10h1M194 10h2M240 10h1M243 10h1M192 11h1M194 11h1M240 11h2M243 11h1M242 12h1M168 17h1M267 17h1M167 18h1M266 18h1M268 18h1M166 19h1M266 19h1M269 19h1M162 20h1M166 20h1M169 20h2M266 20h1M269 20h1M274 20h1M161 21h1M163 21h1M166 21h1M168 21h1M266 21h1M269 21h1M272 21h1M275 21h1M160 22h1M163 22h1M166 22h1M169 22h1M266 22h1M269 22h1M272 22h1M275 22h1M160 23h1M163 23h1M166 23h1M169 23h1M266 23h2M269 23h1M272 23h2M275 23h1M160 24h1M163 24h1M166 24h1M168 24h1M267 24h1M269 24h1M275 24h1M160 25h1M163 25h1M166 25h1M275 25h1M160 26h1M162 26h2M275 26h1M160 27h1M162 27h1M272 27h2M275 27h1M275 28h1M135 33h2M134 34h1M302 34h1M134 35h1M302 35h1M130 36h1M134 36h1M137 36h2M302 36h1M306 36h1M129 37h1M131 37h1M134 37h1M136 37h1M302 37h1M305 37h1M307 37h1M128 38h1M131 38h1M134 38h1M137 38h1M300 38h1M302 38h1M305 38h1M308 38h1M128 39h1M131 39h1M137 39h1M302 39h1M305 39h1M308 39h1M128 40h1M131 40h1M135 40h2M302 40h1M305 40h1M308 40h1M128 41h1M131 41h1M134 41h1M302 41h1M305 41h1M308 41h1M128 42h1M130 42h2M302 42h1M305 42h2M308 42h1M128 43h1M130 43h1M306 43h1M308 43h1M104 48h1M103 49h1M103 50h1M334 50h1M102 51h1M104 51h1M334 51h1M98 52h1M102 52h1M104 52h1M334 52h1M338 52h1M97 53h1M99 53h1M101 53h1M334 53h1M338 53h1M96 54h1M99 54h1M101 54h1M104 54h1M332 54h1M334 54h1M338 54h1M96 55h1M99 55h1M104 55h1M334 55h1M338 55h1M96 56h1M99 56h1M104 56h1M334 56h1M336 56h1M338 56h1M96 57h1M99 57h1M334 57h1M338 57h1M96 58h1M98 58h2M334 58h1M338 58h1M96 59h1M98 59h1M338 59h1M338 60h1M71 65h1M70 66h1M73 66h1M366 66h1M73 67h1M366 67h1M66 68h1M73 68h1M366 68h1M371 68h1M65 69h1M67 69h1M71 69h1M366 69h1M369 69h1M372 69h1M64 70h1M67 70h1M73 70h1M364 70h1M366 70h1M372 70h1M64 71h1M67 71h1M73 71h1M366 71h1M371 71h1M64 72h1M67 72h1M70 72h1M72 72h2M366 72h1M370 72h1M64 73h1M67 73h1M71 73h1M366 73h1M369 73h1M64 74h1M66 74h2M366 74h1M369 74h1M64 75h1M66 75h1M369 75h3M39 81h1M38 82h1M41 82h1M398 82h1M41 83h1M398 83h1M34 84h1M40 84h1M398 84h1M403 84h1M33 85h1M35 85h1M39 85h1M398 85h1M401 85h1M404 85h1M32 86h1M35 86h1M38 86h1M396 86h1M398 86h1M404 86h1M32 87h1M35 87h1M38 87h1M41 87h2M398 87h1M404 87h1M32 88h1M35 88h1M38 88h1M40 88h1M398 88h1M404 88h1M32 89h1M35 89h1M398 89h1M404 89h1M32 90h1M34 90h2M398 90h1M404 90h1M32 91h1M34 91h1M401 91h2M404 91h1M403 92h1M7 97h1M6 98h2M430 98h1M6 99h1M430 99h1M435 99h1M2 100h1M5 100h2M430 100h1M435 100h1M1 101h1M3 101h1M5 101h1M7 101h1M430 101h1M433 101h1M435 101h1M0 102h1M3 102h1M7 102h1M428 102h1M430 102h1M433 102h1M435 102h1M0 103h1M3 103h1M7 103h1M430 103h1M432 103h1M435 103h1M0 104h1M3 104h1M7 104h1M430 104h1M433 104h1M435 104h1M0 105h1M3 105h1M7 105h1M430 105h1M435 105h1M0 106h1M2 106h2M430 106h1M0 107h1M2 107h1M435 107h1M435 108h1M358 145h1M78 146h1M357 146h1M360 146h1M78 147h1M357 147h1M360 147h1M78 148h1M353 148h1M357 148h1M360 148h1M78 149h1M83 149h1M352 149h2M358 149h1M76 150h1M78 150h1M82 150h1M85 150h1M352 150h1M357 150h1M360 150h1M78 151h1M82 151h1M351 151h2M357 151h1M360 151h1M78 152h1M82 152h2M351 152h1M353 152h1M357 152h1M359 152h2M78 153h1M84 153h1M353 153h1M358 153h1M78 154h1M85 154h1M353 154h1M81 155h1M85 155h1M353 155h1M82 156h2M85 156h1M353 156h1M84 157h1M325 161h2M110 162h1M324 162h1M327 162h1M110 163h1M327 163h1M110 164h1M116 164h1M321 164h1M327 164h1M110 165h1M113 165h1M116 165h1M320 165h2M327 165h1M108 166h1M110 166h1M113 166h1M320 166h1M326 166h1M110 167h1M113 167h2M319 167h2M327 167h1M110 168h1M115 168h1M319 168h1M321 168h1M327 168h1M110 169h1M113 169h1M116 169h1M321 169h1M327 169h1M110 170h1M113 170h1M116 170h1M321 170h1M113 171h2M116 171h1M321 171h1M115 172h1M321 172h1" />
<path stroke="#a8e062" d="M200 0h2M198 1h2M201 1h1M233 1h2M201 2h1M233 2h1M235 2h1M201 3h1M233 3h1M236 3h1M195 4h2M201 4h2M233 4h1M236 4h1M240 4h2M194 5h1M196 5h1M200 5h2M233 5h1M236 5h1M239 5h1M242 5h1M193 6h1M196 6h1M201 6h1M233 6h1M236 6h1M239 6h1M242 6h1M193 7h1M196 7h1M201 7h1M233 7h1M236 7h1M239 7h1M242 7h1M193 8h1M196 8h1M201 8h1M233 8h2M236 8h1M240 8h2M193 9h1M196 9h1M235 9h1M239 9h1M242 9h1M193 10h1M196 10h1M239 10h1M242 10h1M193 11h1M195 11h2M239 11h1M242 11h1M194 12h1M240 12h2M169 17h2M265 17h2M168 18h1M265 18h1M267 18h1M167 19h1M265 19h1M268 19h1M163 20h2M167 20h1M265 20h1M268 20h1M272 20h2M162 21h1M164 21h1M167 21h1M169 21h2M265 21h1M268 21h1M271 21h1M274 21h1M161 22h1M164 22h1M167 22h2M170 22h1M265 22h1M268 22h1M271 22h1M274 22h1M161 23h1M164 23h1M167 23h1M170 23h1M265 23h1M268 23h1M271 23h1M274 23h1M161 24h1M164 24h1M167 24h1M169 24h1M265 24h2M268 24h1M271 24h4M161 25h1M164 25h1M167 25h2M267 25h1M274 25h1M161 26h1M164 26h1M274 26h1M161 27h1M163 27h2M271 27h1M274 27h1M162 28h1M272 28h3M137 33h2M135 34h2M301 34h1M135 35h1M301 35h1M131 36h2M135 36h1M300 36h2M305 36h1M130 37h1M132 37h1M135 37h1M137 37h2M300 37h2M304 37h1M306 37h1M129 38h1M132 38h1M135 38h2M138 38h1M299 38h1M301 38h1M304 38h1M307 38h1M129 39h1M132 39h1M138 39h1M301 39h1M304 39h1M307 39h1M129 40h1M132 40h1M137 40h1M301 40h1M304 40h1M307 40h1M129 41h1M132 41h1M135 41h2M301 41h1M304 41h1M307 41h1M129 42h1M132 42h1M301 42h1M304 42h1M307 42h1M129 43h1M131 43h2M304 43h2M307 43h1M130 44h1M306 44h1M105 48h1M104 49h2M104 50h2M333 50h1M103 51h1M105 51h1M333 51h1M99 52h2M103 52h1M105 52h2M332 52h2M337 52h1M98 53h1M100 53h1M102 53h4M332 53h2M337 53h1M97 54h1M100 54h1M102 54h1M105 54h1M331 54h1M333 54h1M336 54h2M97 55h1M100 55h1M105 55h1M333 55h1M336 55h2M97 56h1M100 56h1M105 56h1M333 56h1M335 56h1M337 56h1M97 57h1M100 57h1M333 57h1M337 57h1M97 58h1M100 58h1M333 58h1M337 58h1M97 59h1M99 59h2M337 59h1M98 60h1M337 60h1M72 65h2M71 66h1M74 66h1M365 66h1M74 67h1M365 67h1M67 68h2M74 68h1M364 68h2M369 68h2M66 69h1M68 69h1M72 69h3M364 69h2M368 69h1M371 69h1M65 70h1M68 70h1M74 70h1M363 70h1M365 70h1M371 70h1M65 71h1M68 71h1M74 71h1M365 71h1M370 71h1M65 72h1M68 72h1M71 72h1M74 72h1M365 72h1M369 72h1M65 73h1M68 73h1M72 73h2M365 73h1M368 73h1M65 74h1M68 74h1M365 74h1M368 74h1M65 75h1M67 75h2M368 75h1M66 76h1M369 76h3M40 81h2M39 82h1M42 82h1M397 82h1M42 83h1M397 83h1M35 84h2M41 84h2M396 84h2M401 84h2M34 85h1M36 85h1M40 85h1M396 85h2M400 85h1M403 85h1M33 86h1M36 86h1M39 86h1M395 86h1M397 86h1M403 86h1M33 87h1M36 87h1M39 87h1M397 87h1M403 87h1M33 88h1M36 88h1M39 88h1M41 88h2M397 88h1M401 88h3M33 89h1M36 89h1M40 89h1M397 89h1M403 89h1M33 90h1M36 90h1M397 90h1M403 90h1M33 91h1M35 91h2M400 91h1M403 91h1M34 92h1M401 92h2M8 97h1M8 98h1M429 98h1M7 99h2M429 99h1M434 99h1M3 100h2M7 100h2M428 100h2M433 100h2M2 101h1M4 101h1M6 101h1M8 101h1M428 101h2M432 101h1M434 101h1M1 102h1M4 102h1M8 102h1M427 102h1M429 102h1M432 102h1M434 102h1M1 103h1M4 103h1M8 103h1M429 103h1M431 103h1M434 103h1M1 104h1M4 104h1M8 104h1M429 104h1M431 104h2M434 104h1M1 105h1M4 105h1M8 105h1M429 105h1M433 105h2M1 106h1M4 106h1M429 106h1M434 106h2M1 107h1M3 107h2M434 107h1M2 108h1M434 108h1M359 145h2M77 146h1M358 146h1M361 146h1M77 147h1M358 147h1M361 147h1M76 148h2M354 148h1M358 148h1M361 148h1M76 149h2M81 149h2M354 149h1M359 149h2M75 150h1M77 150h1M81 150h1M83 150h2M353 150h2M358 150h1M361 150h1M77 151h1M81 151h1M353 151h2M358 151h1M361 151h1M77 152h1M81 152h1M352 152h1M354 152h1M358 152h1M361 152h1M77 153h1M81 153h3M354 153h1M359 153h2M77 154h1M84 154h1M354 154h1M84 155h1M354 155h1M81 156h1M84 156h1M354 156h1M82 157h2M327 161h2M109 162h1M325 162h2M328 162h1M109 163h1M328 163h1M108 164h2M113 164h3M322 164h1M328 164h1M108 165h2M112 165h1M115 165h1M322 165h1M328 165h2M107 166h1M109 166h1M112 166h1M321 166h2M327 166h2M109 167h1M112 167h1M321 167h2M328 167h1M109 168h1M112 168h3M320 168h1M322 168h1M328 168h1M109 169h1M112 169h1M115 169h1M322 169h1M328 169h1M109 170h1M112 170h1M115 170h1M322 170h1M112 171h1M115 171h1M322 171h1M113 172h2M322 172h1" />
</svg>