<svg xmlns="http://www.w3.org/2000/svg" viewBox="0 -0.5 68 49" shape-rendering="crispEdges">
<metadata>Made with Pixels to Svg https://codepen.io/shshaw/pen/XbxvNj</metadata>
<path stroke="#000000" d="M32 0h4M30 1h2M36 1h2M28 2h2M38 2h2M26 3h2M40 3h2M24 4h2M42 4h2M22 5h2M44 5h2M20 6h2M46 6h2M18 7h2M48 7h2M16 8h2M50 8h2M14 9h2M52 9h2M12 10h2M54 10h2M10 11h2M56 11h2M8 12h2M58 12h2M6 13h2M60 13h2M4 14h2M62 14h2M2 15h2M64 15h2M1 16h1M66 16h1M0 17h1M67 17h1M0 18h1M67 18h1M0 19h1M67 19h1M0 20h1M67 20h1M0 21h1M67 21h1M0 22h1M67 22h1M0 23h1M67 23h1M0 24h1M67 24h1M1 25h1M66 25h1M1 26h2M65 26h2M1 27h1M3 27h2M63 27h2M66 27h1M1 28h1M5 28h2M61 28h2M66 28h1M1 29h1M7 29h2M59 29h2M66 29h1M1 30h1M9 30h2M57 30h2M66 30h1M1 31h1M11 31h2M55 31h2M66 31h1M1 32h2M13 32h2M53 32h2M65 32h2M3 33h2M15 33h2M51 33h2M63 33h2M5 34h2M17 34h2M49 34h2M61 34h2M7 35h2M19 35h2M47 35h2M59 35h2M9 36h2M21 36h2M45 36h2M57 36h2M11 37h2M23 37h2M43 37h2M55 37h2M13 38h2M25 38h2M41 38h2M53 38h2M15 39h2M27 39h2M39 39h2M51 39h2M17 40h2M29 40h2M37 40h2M49 40h2M19 41h2M31 41h2M35 41h2M47 41h2M21 42h2M33 42h2M45 42h2M23 43h2M43 43h2M25 44h2M41 44h2M27 45h2M39 45h2M29 46h2M37 46h2M31 47h2M35 47h2M33 48h2" />
<path stroke="#fbfbfb" d="M32 1h4M30 2h8M28 3h12M26 4h16M24 5h20M22 6h24M20 7h28M18 8h32M16 9h36M14 10h40M12 11h44M10 12h48M8 13h52M6 14h56M4 15h60M2 16h64M4 17h59M6 18h55M8 19h51M10 20h47M12 21h43M14 22h39M16 23h35M18 24h31M20 25h27M22 26h23M24 27h19M26 28h15M28 29h11M30 30h7M32 31h3M33 32h1" />
<path stroke="#eaeaea" d="M1 17h3M63 17h4M1 18h5M61 18h6M1 19h7M59 19h8M1 20h9M57 20h10M1 21h11M55 21h12M1 22h13M53 22h14M1 23h15M51 23h16M1 24h17M49 24h18M2 25h18M47 25h19M3 26h19M45 26h20M5 27h19M43 27h20M7 28h19M41 28h20M9 29h19M39 29h20M11 30h19M37 30h20M13 31h19M35 31h20M15 32h18M34 32h19M17 33h34M19 34h30M21 35h26M23 36h22M25 37h18M27 38h14M29 39h10M31 40h6M33 41h2" />
<path stroke="#e2e2e2" d="M2 27h1M65 27h1M2 28h3M63 28h3M2 29h5M61 29h5M2 30h7M59 30h7M2 31h9M57 31h9M3 32h10M55 32h10M5 33h10M53 33h10M7 34h10M51 34h10M9 35h10M49 35h10M11 36h10M47 36h10M13 37h10M45 37h10M15 38h10M43 38h10M17 39h10M41 39h10M19 40h10M39 40h10M21 41h10M37 41h10M23 42h10M35 42h10M25 43h18M27 44h14M29 45h10M31 46h6M33 47h2" />
</svg>