<svg xmlns="http://www.w3.org/2000/svg" viewBox="0 -0.5 98 82" shape-rendering="crispEdges">
<metadata>Made with Pixels to Svg https://codepen.io/shshaw/pen/XbxvNj</metadata>
<path stroke="#000000" d="M41 0h2M41 1h1M43 1h1M41 2h1M44 2h1M47 2h3M41 3h1M45 3h2M49 3h1M36 4h6M45 4h1M49 4h1M36 5h1M48 5h1M37 6h1M47 6h4M38 7h1M51 7h2M34 8h2M38 8h3M53 8h1M34 9h1M36 9h1M38 9h1M49 9h5M35 10h1M37 10h1M49 10h1M36 11h1M41 11h1M45 11h1M49 11h1M15 12h2M32 12h3M36 12h6M45 12h2M50 12h1M15 13h1M17 13h1M27 13h2M31 13h1M34 13h1M37 13h2M41 13h1M45 13h1M47 13h1M50 13h1M15 14h1M18 14h1M27 14h1M29 14h2M32 14h2M36 14h2M39 14h1M41 14h1M44 14h1M48 14h1M50 14h1M15 15h1M19 15h1M27 15h1M32 15h1M35 15h1M37 15h1M39 15h1M41 15h1M43 15h2M49 15h2M54 15h7M15 16h1M20 16h1M24 16h3M32 16h1M35 16h1M37 16h1M39 16h1M41 16h2M45 16h1M53 16h1M60 16h1M15 17h1M21 17h1M23 17h1M32 17h1M35 17h1M37 17h1M39 17h2M43 17h2M46 17h1M52 17h1M59 17h1M16 18h1M21 18h1M23 18h2M33 18h1M35 18h1M37 18h2M40 18h1M42 18h1M45 18h2M51 18h1M58 18h1M17 19h1M21 19h1M25 19h1M32 19h4M37 19h1M40 19h1M42 19h1M51 19h1M57 19h1M60 19h3M18 20h2M21 20h4M32 20h1M35 20h2M40 20h1M42 20h1M51 20h1M56 20h1M60 20h1M63 20h1M66 20h2M19 21h1M23 21h1M25 21h4M32 21h1M36 21h1M40 21h6M51 21h1M53 21h3M61 21h2M64 21h2M67 21h1M10 22h1M19 22h1M23 22h1M25 22h1M27 22h1M29 22h2M33 22h1M45 22h1M48 22h4M53 22h1M62 22h1M67 22h1M9 23h1M11 23h1M19 23h1M21 23h1M23 23h2M26 23h1M30 23h5M44 23h1M47 23h1M51 23h1M53 23h1M62 23h1M68 23h3M9 24h1M11 24h1M19 24h1M21 24h10M43 24h1M46 24h1M51 24h1M53 24h1M62 24h1M71 24h1M9 25h1M11 25h1M19 25h1M21 25h1M23 25h2M28 25h1M41 25h3M46 25h4M51 25h1M53 25h1M61 25h1M70 25h2M4 26h10M17 26h3M21 26h1M23 26h1M25 26h8M43 26h3M50 26h2M53 26h2M61 26h1M69 26h1M5 27h1M14 27h3M19 27h1M21 27h2M24 27h1M26 27h1M32 27h1M44 27h1M46 27h3M51 27h1M53 27h1M55 27h1M60 27h1M70 27h1M6 28h1M15 28h1M18 28h2M21 28h1M23 28h1M25 28h1M28 28h5M36 28h1M40 28h1M45 28h2M49 28h1M52 28h2M55 28h6M66 28h4M71 28h1M7 29h1M16 29h2M19 29h2M22 29h1M24 29h1M26 29h2M30 29h2M35 29h2M40 29h6M47 29h1M50 29h1M52 29h2M55 29h1M59 29h2M64 29h2M67 29h1M69 29h1M71 29h1M8 30h7M17 30h1M19 30h1M21 30h1M23 30h1M25 30h1M27 30h3M31 30h1M34 30h3M40 30h3M45 30h2M48 30h1M50 30h1M53 30h2M56 30h2M60 30h4M65 30h1M67 30h1M70 30h2M77 30h1M9 31h1M15 31h1M17 31h1M19 31h1M21 31h2M24 31h2M27 31h1M29 31h1M31 31h1M33 31h3M37 31h1M40 31h1M43 31h1M46 31h1M48 31h1M51 31h1M53 31h1M55 31h1M57 31h2M61 31h1M63 31h1M65 31h1M67 31h2M76 31h1M78 31h1M81 31h1M9 32h1M15 32h1M17 32h1M19 32h4M24 32h2M27 32h2M31 32h3M35 32h1M37 32h2M40 32h3M44 32h1M46 32h2M49 32h1M51 32h2M54 32h2M57 32h1M59 32h1M61 32h1M63 32h1M65 32h1M67 32h1M69 32h1M76 32h1M78 32h1M80 32h1M82 32h1M5 33h5M15 33h1M17 33h1M19 33h1M21 33h3M25 33h1M27 33h2M30 33h1M33 33h2M36 33h1M38 33h3M42 33h1M44 33h1M47 33h1M49 33h1M51 33h2M54 33h2M57 33h1M59 33h1M61 33h1M63 33h1M65 33h1M67 33h1M69 33h1M76 33h1M78 33h3M82 33h1M4 34h1M10 34h2M15 34h1M17 34h3M21 34h1M23 34h1M25 34h1M27 34h1M29 34h2M32 34h1M34 34h1M36 34h1M38 34h2M41 34h1M43 34h1M45 34h1M47 34h1M49 34h1M51 34h2M54 34h4M59 34h1M61 34h1M63 34h1M65 34h1M67 34h1M69 34h1M76 34h1M78 34h1M80 34h1M82 34h1M3 35h1M12 35h4M17 35h1M19 35h1M21 35h1M24 35h2M27 35h2M30 35h1M32 35h1M34 35h1M36 35h1M38 35h2M41 35h1M43 35h1M45 35h1M47 35h1M49 35h1M51 35h2M54 35h1M58 35h2M61 35h5M67 35h1M69 35h2M76 35h1M78 35h1M80 35h1M82 35h1M2 36h1M12 36h1M16 36h2M19 36h1M21 36h4M26 36h1M30 36h1M32 36h1M34 36h1M36 36h1M38 36h8M47 36h1M49 36h5M59 36h1M61 36h1M63 36h1M65 36h1M67 36h1M69 36h1M71 36h1M75 36h2M78 36h1M80 36h1M82 36h1M87 36h6M2 37h1M11 37h1M17 37h1M19 37h1M24 37h1M27 37h1M30 37h1M32 37h3M36 37h2M44 37h4M49 37h1M51 37h1M53 37h1M59 37h1M61 37h1M63 37h1M65 37h1M67 37h1M69 37h1M71 37h1M74 37h1M76 37h1M78 37h1M80 37h1M82 37h1M86 37h1M92 37h1M1 38h1M10 38h1M18 38h2M25 38h1M27 38h1M30 38h1M34 38h1M36 38h1M43 38h1M45 38h1M47 38h1M49 38h1M51 38h1M53 38h1M59 38h1M61 38h1M63 38h1M65 38h1M67 38h1M69 38h1M71 38h1M74 38h3M78 38h1M80 38h1M82 38h1M85 38h1M91 38h1M1 39h1M9 39h1M19 39h3M26 39h2M31 39h1M33 39h1M35 39h1M42 39h2M45 39h3M49 39h1M51 39h4M59 39h5M65 39h1M67 39h1M69 39h1M71 39h4M76 39h1M78 39h1M80 39h1M82 39h1M84 39h1M90 39h1M0 40h1M10 40h9M21 40h1M27 40h1M29 40h3M33 40h1M35 40h1M41 40h1M43 40h1M45 40h1M47 40h1M49 40h1M51 40h1M55 40h4M64 40h6M71 40h1M74 40h1M77 40h2M80 40h1M82 40h3M89 40h1M0 41h1M21 41h2M27 41h2M31 41h1M33 41h1M35 41h1M40 41h2M43 41h1M45 41h1M48 41h1M50 41h1M56 41h1M58 41h1M64 41h2M69 41h1M71 41h2M75 41h1M78 41h1M80 41h1M82 41h1M84 41h1M88 41h1M0 42h1M21 42h1M23 42h1M27 42h2M31 42h1M33 42h1M35 42h1M38 42h2M41 42h1M43 42h1M45 42h6M56 42h1M58 42h1M64 42h1M70 42h2M73 42h2M76 42h1M78 42h1M80 42h1M82 42h1M84 42h1M86 42h2M0 43h1M21 43h1M24 43h1M27 43h1M29 43h1M31 43h1M33 43h1M35 43h1M37 43h1M39 43h1M41 43h1M43 43h3M50 43h1M56 43h2M59 43h6M70 43h2M73 43h1M75 43h2M78 43h1M80 43h1M82 43h1M84 43h1M86 43h1M0 44h1M20 44h1M25 44h7M33 44h1M35 44h1M37 44h1M39 44h1M41 44h1M43 44h1M45 44h3M51 44h1M55 44h5M61 44h1M63 44h2M70 44h2M73 44h1M75 44h2M78 44h1M80 44h1M82 44h1M84 44h3M0 45h1M20 45h1M32 45h2M35 45h1M37 45h1M39 45h1M41 45h1M44 45h1M48 45h1M51 45h5M58 45h4M63 45h1M65 45h1M69 45h5M75 45h2M78 45h1M80 45h1M82 45h1M84 45h1M86 45h1M0 46h1M20 46h1M34 46h2M37 46h1M39 46h1M41 46h1M43 46h1M49 46h3M55 46h1M57 46h1M61 46h1M63 46h1M65 46h4M73 46h1M75 46h2M78 46h1M80 46h1M82 46h1M84 46h1M86 46h2M1 47h1M19 47h1M36 47h2M39 47h1M41 47h2M50 47h2M55 47h1M57 47h1M61 47h5M67 47h2M74 47h2M77 47h2M80 47h1M82 47h1M84 47h1M86 47h4M1 48h1M19 48h1M38 48h2M41 48h1M51 48h2M55 48h3M61 48h1M65 48h4M74 48h2M77 48h1M79 48h2M82 48h3M86 48h1M89 48h3M2 49h1M19 49h1M39 49h1M41 49h11M53 49h1M55 49h1M58 49h4M65 49h2M68 49h1M74 49h2M77 49h1M79 49h2M82 49h1M84 49h2M88 49h1M92 49h2M3 50h1M19 50h1M40 50h2M43 50h1M45 50h1M47 50h1M51 50h1M54 50h2M57 50h1M61 50h1M65 50h2M69 50h1M74 50h2M77 50h1M79 50h4M84 50h1M87 50h2M94 50h1M4 51h2M19 51h1M40 51h2M43 51h1M45 51h2M48 51h1M51 51h1M54 51h1M56 51h2M61 51h4M67 51h1M69 51h8M78 51h3M82 51h1M84 51h1M86 51h1M88 51h1M95 51h1M6 52h2M19 52h1M40 52h6M47 52h1M49 52h1M51 52h2M55 52h2M58 52h4M63 52h1M67 52h5M74 52h1M76 52h1M78 52h1M80 52h1M82 52h5M88 52h1M96 52h1M8 53h1M19 53h1M40 53h1M45 53h1M47 53h1M49 53h1M51 53h1M53 53h1M59 53h1M61 53h1M63 53h1M66 53h3M72 53h1M74 53h1M76 53h1M78 53h1M80 53h2M87 53h2M96 53h1M9 54h2M19 54h1M39 54h1M46 54h2M49 54h1M51 54h1M53 54h1M59 54h4M64 54h2M67 54h3M71 54h4M76 54h1M78 54h2M89 54h1M97 54h1M11 55h2M19 55h1M38 55h1M48 55h6M62 55h3M66 55h1M70 55h1M72 55h1M74 55h1M76 55h2M90 55h1M97 55h1M13 56h7M38 56h1M53 56h2M60 56h1M65 56h1M71 56h2M74 56h2M90 56h1M97 56h1M19 57h1M37 57h1M55 57h2M59 57h1M61 57h4M72 57h2M90 57h1M97 57h1M20 58h1M37 58h1M57 58h3M61 58h1M63 58h1M73 58h1M90 58h1M97 58h1M21 59h1M34 59h4M59 59h3M63 59h1M65 59h2M73 59h1M91 59h1M97 59h1M22 60h1M33 60h1M37 60h1M61 60h3M67 60h2M74 60h1M91 60h1M97 60h1M23 61h2M32 61h1M38 61h1M63 61h3M67 61h1M69 61h2M74 61h1M91 61h1M97 61h1M25 62h3M32 62h1M38 62h1M66 62h3M71 62h2M74 62h1M91 62h1M97 62h1M28 63h5M39 63h1M67 63h1M69 63h1M73 63h2M91 63h1M97 63h1M32 64h1M40 64h1M68 64h2M91 64h1M97 64h1M33 65h1M41 65h1M69 65h1M91 65h1M96 65h1M34 66h1M42 66h1M70 66h1M91 66h1M95 66h1M35 67h1M43 67h1M71 67h1M91 67h4M36 68h2M44 68h1M72 68h1M90 68h1M38 69h2M45 69h1M72 69h1M89 69h1M40 70h2M46 70h1M73 70h1M87 70h2M42 71h6M73 71h1M85 71h2M48 72h1M73 72h1M83 72h2M49 73h1M73 73h1M81 73h2M50 74h1M73 74h1M78 74h3M51 75h2M73 75h5M53 76h2M73 76h1M55 77h2M72 77h1M57 78h1M71 78h1M58 79h2M70 79h1M60 80h3M68 80h2M63 81h5" />
<path stroke="#ffffff" d="M42 1h1M42 2h2M42 3h3M47 3h2M42 4h3M46 4h3M37 5h11M38 6h9M39 7h12M41 8h12M35 9h1M39 9h10M36 10h1M38 10h11M37 11h4M42 11h3M46 11h3M42 12h3M47 12h3M16 13h1M32 13h2M39 13h2M42 13h3M48 13h2M16 14h2M28 14h1M31 14h1M38 14h1M40 14h1M42 14h2M49 14h1M16 15h3M28 15h4M36 15h1M38 15h1M40 15h1M42 15h1M16 16h4M27 16h5M36 16h1M38 16h1M40 16h1M43 16h2M54 16h6M16 17h5M24 17h8M36 17h1M38 17h1M41 17h2M45 17h1M53 17h6M17 18h4M25 18h8M36 18h1M39 18h1M41 18h1M52 18h6M18 19h3M26 19h6M36 19h1M38 19h2M41 19h1M52 19h5M20 20h1M25 20h7M33 20h2M37 20h3M41 20h1M52 20h4M61 20h2M20 21h3M24 21h1M29 21h3M33 21h3M37 21h3M52 21h1M63 21h1M66 21h1M20 22h3M24 22h1M26 22h1M28 22h1M31 22h2M34 22h11M52 22h1M63 22h4M10 23h1M20 23h1M22 23h1M25 23h1M27 23h3M35 23h9M48 23h3M52 23h1M63 23h5M10 24h1M20 24h1M31 24h12M47 24h4M52 24h1M63 24h8M10 25h1M20 25h1M22 25h1M25 25h3M29 25h12M50 25h1M52 25h1M62 25h8M20 26h1M22 26h1M24 26h1M33 26h10M46 26h4M52 26h1M62 26h7M6 27h8M17 27h2M20 27h1M23 27h1M25 27h1M27 27h5M33 27h11M45 27h1M49 27h2M52 27h1M54 27h1M61 27h9M7 28h8M16 28h2M20 28h1M22 28h1M24 28h1M26 28h2M33 28h3M37 28h3M41 28h4M47 28h2M50 28h2M54 28h1M61 28h5M70 28h1M8 29h8M18 29h1M21 29h1M23 29h1M25 29h1M28 29h2M32 29h3M37 29h3M46 29h1M48 29h2M51 29h1M54 29h1M56 29h3M61 29h3M66 29h1M70 29h1M15 30h2M18 30h1M20 30h1M22 30h1M24 30h1M26 30h1M30 30h1M32 30h2M37 30h3M43 30h2M47 30h1M49 30h1M51 30h2M55 30h1M58 30h2M64 30h1M66 30h1M10 31h5M16 31h1M18 31h1M20 31h1M23 31h1M26 31h1M28 31h1M30 31h1M32 31h1M36 31h1M38 31h2M41 31h2M44 31h2M47 31h1M49 31h2M52 31h1M54 31h1M56 31h1M59 31h2M62 31h1M64 31h1M66 31h1M77 31h1M10 32h5M16 32h1M18 32h1M23 32h1M26 32h1M29 32h2M34 32h1M36 32h1M39 32h1M43 32h1M45 32h1M48 32h1M50 32h1M53 32h1M56 32h1M58 32h1M60 32h1M62 32h1M64 32h1M66 32h1M68 32h1M77 32h1M81 32h1M10 33h5M16 33h1M18 33h1M20 33h1M24 33h1M26 33h1M29 33h1M31 33h2M35 33h1M37 33h1M41 33h1M43 33h1M45 33h2M48 33h1M50 33h1M53 33h1M56 33h1M58 33h1M60 33h1M62 33h1M64 33h1M66 33h1M68 33h1M77 33h1M81 33h1M5 34h5M12 34h3M16 34h1M20 34h1M22 34h1M24 34h1M26 34h1M28 34h1M31 34h1M33 34h1M35 34h1M37 34h1M40 34h1M42 34h1M44 34h1M46 34h1M48 34h1M50 34h1M53 34h1M58 34h1M60 34h1M62 34h1M64 34h1M66 34h1M68 34h1M77 34h1M79 34h1M81 34h1M4 35h8M16 35h1M18 35h1M20 35h1M22 35h2M26 35h1M29 35h1M31 35h1M33 35h1M35 35h1M37 35h1M40 35h1M42 35h1M44 35h1M46 35h1M48 35h1M50 35h1M53 35h1M55 35h3M60 35h1M66 35h1M68 35h1M77 35h1M79 35h1M81 35h1M3 36h9M13 36h3M18 36h1M20 36h1M25 36h1M27 36h3M31 36h1M33 36h1M35 36h1M37 36h1M46 36h1M48 36h1M54 36h5M60 36h1M62 36h1M64 36h1M66 36h1M68 36h1M70 36h1M77 36h1M79 36h1M81 36h1M3 37h8M12 37h5M18 37h1M20 37h4M25 37h2M28 37h2M31 37h1M35 37h1M38 37h6M48 37h1M50 37h1M52 37h1M54 37h5M60 37h1M62 37h1M64 37h1M66 37h1M68 37h1M70 37h1M75 37h1M77 37h1M79 37h1M81 37h1M87 37h5M2 38h8M11 38h7M20 38h5M26 38h1M28 38h2M31 38h3M35 38h1M37 38h6M44 38h1M46 38h1M48 38h1M50 38h1M52 38h1M54 38h5M60 38h1M62 38h1M64 38h1M66 38h1M68 38h1M70 38h1M77 38h1M79 38h1M81 38h1M86 38h5M2 39h7M10 39h9M22 39h4M28 39h3M32 39h1M34 39h1M36 39h6M44 39h1M48 39h1M50 39h1M55 39h4M64 39h1M66 39h1M68 39h1M70 39h1M75 39h1M77 39h1M79 39h1M81 39h1M85 39h5M1 40h9M19 40h2M22 40h5M28 40h1M32 40h1M34 40h1M36 40h5M42 40h1M44 40h1M46 40h1M48 40h1M50 40h1M52 40h3M59 40h5M70 40h1M72 40h2M75 40h2M79 40h1M81 40h1M85 40h4M1 41h20M23 41h4M29 41h2M32 41h1M34 41h1M36 41h4M42 41h1M44 41h1M46 41h2M49 41h1M51 41h5M57 41h1M59 41h5M66 41h3M70 41h1M73 41h2M76 41h2M79 41h1M81 41h1M83 41h1M85 41h3M1 42h20M22 42h1M24 42h3M29 42h2M32 42h1M34 42h1M36 42h2M40 42h1M42 42h1M44 42h1M51 42h5M57 42h1M59 42h5M65 42h5M72 42h1M75 42h1M77 42h1M79 42h1M81 42h1M83 42h1M85 42h1M1 43h20M22 43h2M25 43h2M28 43h1M30 43h1M32 43h1M34 43h1M36 43h1M38 43h1M40 43h1M42 43h1M46 43h4M51 43h5M58 43h1M65 43h5M72 43h1M74 43h1M77 43h1M79 43h1M81 43h1M83 43h1M85 43h1M1 44h19M21 44h4M32 44h1M34 44h1M36 44h1M38 44h1M40 44h1M42 44h1M44 44h1M48 44h3M52 44h3M60 44h1M62 44h1M65 44h5M72 44h1M74 44h1M77 44h1M79 44h1M81 44h1M83 44h1M1 45h19M21 45h11M34 45h1M36 45h1M38 45h1M40 45h1M42 45h2M45 45h3M49 45h2M56 45h2M62 45h1M64 45h1M66 45h3M74 45h1M77 45h1M79 45h1M81 45h1M83 45h1M85 45h1M1 46h19M21 46h13M36 46h1M38 46h1M40 46h1M42 46h1M44 46h5M52 46h3M56 46h1M58 46h3M62 46h1M64 46h1M69 46h4M74 46h1M77 46h1M79 46h1M81 46h1M83 46h1M85 46h1M2 47h17M20 47h16M38 47h1M40 47h1M43 47h7M52 47h3M56 47h1M58 47h3M66 47h1M69 47h5M76 47h1M79 47h1M81 47h1M83 47h1M85 47h1M2 48h17M20 48h18M40 48h1M42 48h9M53 48h2M58 48h3M62 48h3M69 48h5M76 48h1M78 48h1M81 48h1M85 48h1M87 48h2M3 49h16M20 49h19M40 49h1M52 49h1M54 49h1M56 49h2M62 49h3M67 49h1M69 49h5M76 49h1M78 49h1M81 49h1M83 49h1M86 49h2M89 49h3M4 50h15M20 50h20M42 50h1M44 50h1M46 50h1M48 50h3M52 50h2M56 50h1M58 50h3M62 50h3M67 50h2M70 50h4M76 50h1M78 50h1M83 50h1M85 50h2M89 50h5M6 51h13M20 51h20M42 51h1M44 51h1M47 51h1M49 51h2M52 51h2M55 51h1M58 51h3M65 51h2M68 51h1M77 51h1M81 51h1M83 51h1M85 51h1M87 51h1M89 51h6M8 52h11M20 52h20M46 52h1M48 52h1M50 52h1M53 52h2M57 52h1M62 52h1M64 52h3M72 52h2M75 52h1M77 52h1M79 52h1M81 52h1M87 52h1M89 52h7M9 53h10M20 53h20M41 53h4M46 53h1M48 53h1M50 53h1M52 53h1M54 53h5M60 53h1M62 53h1M64 53h2M69 53h3M73 53h1M75 53h1M77 53h1M79 53h1M82 53h5M89 53h7M11 54h8M20 54h19M40 54h6M48 54h1M50 54h1M52 54h1M54 54h5M63 54h1M66 54h1M70 54h1M75 54h1M77 54h1M80 54h9M90 54h7M13 55h6M20 55h18M39 55h9M54 55h8M65 55h1M67 55h3M71 55h1M73 55h1M75 55h1M78 55h12M91 55h6M20 56h18M39 56h14M55 56h5M61 56h4M66 56h5M73 56h1M76 56h14M91 56h6M20 57h17M38 57h17M57 57h2M60 57h1M65 57h7M74 57h16M91 57h6M21 58h16M38 58h19M60 58h1M62 58h1M64 58h9M74 58h16M91 58h6M22 59h12M38 59h21M62 59h1M64 59h1M67 59h6M74 59h17M92 59h5M23 60h10M34 60h3M38 60h23M64 60h3M69 60h5M75 60h16M92 60h5M25 61h7M33 61h5M39 61h24M66 61h1M68 61h1M71 61h3M75 61h16M92 61h5M28 62h4M33 62h5M39 62h27M69 62h2M73 62h1M75 62h16M92 62h5M33 63h6M40 63h27M68 63h1M70 63h3M75 63h16M92 63h5M33 64h7M41 64h27M70 64h21M92 64h5M34 65h7M42 65h27M70 65h21M92 65h4M35 66h7M43 66h27M71 66h20M92 66h3M36 67h7M44 67h27M72 67h19M38 68h6M45 68h27M73 68h17M40 69h5M46 69h26M73 69h16M42 70h4M47 70h26M74 70h13M48 71h25M74 71h11M49 72h24M74 72h9M50 73h23M74 73h7M51 74h22M74 74h4M53 75h20M55 76h18M57 77h15M58 78h13M60 79h10M63 80h5" />
<path stroke="rgba(255,255,255,0.2823529411764706)" d="M61 18h1M59 19h1M57 20h1M96 66h1M95 67h1M90 69h1M89 70h2M87 71h2M85 72h2M83 73h2M81 74h2M78 75h3M72 78h1M71 79h2M70 80h1" />
</svg>