<svg xmlns="http://www.w3.org/2000/svg" viewBox="0 -0.5 800 800" shape-rendering="crispEdges">
<metadata>Made with Pixels to Svg https://codepen.io/shshaw/pen/XbxvNj</metadata>
<path stroke="#000000" d="M370 254h2M498 254h2M368 255h2M372 255h2M496 255h2M500 255h2M366 256h2M374 256h2M494 256h2M502 256h2M364 257h2M376 257h2M492 257h2M504 257h2M362 258h2M378 258h2M490 258h2M506 258h2M360 259h2M380 259h2M488 259h2M508 259h2M358 260h2M382 260h2M486 260h2M510 260h2M356 261h2M384 261h2M484 261h2M512 261h2M354 262h2M386 262h2M482 262h2M514 262h2M352 263h2M388 263h2M480 263h2M516 263h2M350 264h2M390 264h2M478 264h2M518 264h2M348 265h2M392 265h2M476 265h2M520 265h2M346 266h2M394 266h2M474 266h2M522 266h2M344 267h2M396 267h2M472 267h2M524 267h2M342 268h2M398 268h2M470 268h2M526 268h2M340 269h2M400 269h2M468 269h2M528 269h2M338 270h2M402 270h2M466 270h2M530 270h2M336 271h2M340 271h2M400 271h2M404 271h2M464 271h2M468 271h2M528 271h2M532 271h2M334 272h2M342 272h2M398 272h2M406 272h2M462 272h2M470 272h2M526 272h2M534 272h2M332 273h2M344 273h2M396 273h2M408 273h2M460 273h2M472 273h2M524 273h2M536 273h2M330 274h2M346 274h2M394 274h2M410 274h2M458 274h2M474 274h2M522 274h2M538 274h2M328 275h2M348 275h2M392 275h2M412 275h2M456 275h2M476 275h2M520 275h2M540 275h2M326 276h2M350 276h2M390 276h2M414 276h2M454 276h2M478 276h2M518 276h2M542 276h2M324 277h2M352 277h2M388 277h2M416 277h2M452 277h2M480 277h2M516 277h2M544 277h2M322 278h2M354 278h2M386 278h2M418 278h2M450 278h2M482 278h2M514 278h2M546 278h2M320 279h2M356 279h2M384 279h2M420 279h2M448 279h2M484 279h2M512 279h2M548 279h2M318 280h2M358 280h2M382 280h2M422 280h2M446 280h2M486 280h2M510 280h2M550 280h2M316 281h2M360 281h2M380 281h2M424 281h2M444 281h2M488 281h2M508 281h2M552 281h2M314 282h2M362 282h2M378 282h2M426 282h2M442 282h2M490 282h2M506 282h2M554 282h2M312 283h2M364 283h2M376 283h2M428 283h2M440 283h2M492 283h2M504 283h2M556 283h2M310 284h2M366 284h2M374 284h2M430 284h2M438 284h2M494 284h2M502 284h2M558 284h2M308 285h2M368 285h2M372 285h2M432 285h2M436 285h2M496 285h2M500 285h2M560 285h2M306 286h2M370 286h2M434 286h2M498 286h2M562 286h2M304 287h2M308 287h2M368 287h2M372 287h2M432 287h2M436 287h2M496 287h2M500 287h2M560 287h2M564 287h2M302 288h2M310 288h2M366 288h2M374 288h2M430 288h2M438 288h2M494 288h2M502 288h2M558 288h2M566 288h2M300 289h2M312 289h2M364 289h2M376 289h2M428 289h2M440 289h2M492 289h2M504 289h2M556 289h2M568 289h2M298 290h2M314 290h2M362 290h2M378 290h2M426 290h2M442 290h2M490 290h2M506 290h2M554 290h2M570 290h2M296 291h2M316 291h2M360 291h2M380 291h2M424 291h2M444 291h2M488 291h2M508 291h2M552 291h2M572 291h2M294 292h2M318 292h2M358 292h2M382 292h2M422 292h2M446 292h2M486 292h2M510 292h2M550 292h2M574 292h2M292 293h2M320 293h2M356 293h2M384 293h2M420 293h2M448 293h2M484 293h2M512 293h2M548 293h2M576 293h2M290 294h2M322 294h2M354 294h2M386 294h2M418 294h2M450 294h2M482 294h2M514 294h2M546 294h2M578 294h2M288 295h2M324 295h2M352 295h2M388 295h2M416 295h2M452 295h2M480 295h2M516 295h2M544 295h2M580 295h2M286 296h2M326 296h2M350 296h2M390 296h2M414 296h2M454 296h2M478 296h2M518 296h2M542 296h2M582 296h2M284 297h2M328 297h2M348 297h2M392 297h2M412 297h2M456 297h2M476 297h2M520 297h2M540 297h2M584 297h2M282 298h2M330 298h2M346 298h2M394 298h2M410 298h2M458 298h2M474 298h2M522 298h2M538 298h2M586 298h2M280 299h2M332 299h2M344 299h2M396 299h2M408 299h2M460 299h2M472 299h2M524 299h2M536 299h2M588 299h2M278 300h2M334 300h2M342 300h2M398 300h2M406 300h2M462 300h2M470 300h2M526 300h2M534 300h2M590 300h2M276 301h2M336 301h2M340 301h2M400 301h2M404 301h2M464 301h2M468 301h2M528 301h2M532 301h2M592 301h2M274 302h2M338 302h2M402 302h2M466 302h2M530 302h2M594 302h2M272 303h2M276 303h2M336 303h2M340 303h2M400 303h2M404 303h2M464 303h2M468 303h2M528 303h2M532 303h2M592 303h2M596 303h2M270 304h2M278 304h2M334 304h2M342 304h2M398 304h2M406 304h2M462 304h2M470 304h2M526 304h2M534 304h2M590 304h2M598 304h2M268 305h2M280 305h2M332 305h2M344 305h2M396 305h2M408 305h2M460 305h2M472 305h2M524 305h2M536 305h2M588 305h2M600 305h2M266 306h2M282 306h2M330 306h2M346 306h2M394 306h2M410 306h2M458 306h2M474 306h2M522 306h2M538 306h2M586 306h2M602 306h2M264 307h2M284 307h2M328 307h2M348 307h2M392 307h2M412 307h2M456 307h2M476 307h2M520 307h2M540 307h2M584 307h2M604 307h2M262 308h2M286 308h2M326 308h2M350 308h2M390 308h2M414 308h2M454 308h2M478 308h2M518 308h2M542 308h2M582 308h2M606 308h2M260 309h2M288 309h2M324 309h2M352 309h2M388 309h2M416 309h2M452 309h2M480 309h2M516 309h2M544 309h2M580 309h2M608 309h2M258 310h2M290 310h2M322 310h2M354 310h2M386 310h2M418 310h2M450 310h2M482 310h2M514 310h2M546 310h2M578 310h2M610 310h2M256 311h2M292 311h2M320 311h2M356 311h2M384 311h2M420 311h2M448 311h2M484 311h2M512 311h2M548 311h2M576 311h2M612 311h2M254 312h2M294 312h2M318 312h2M358 312h2M382 312h2M422 312h2M446 312h2M486 312h2M510 312h2M550 312h2M574 312h2M614 312h2M252 313h2M296 313h2M316 313h2M360 313h2M380 313h2M424 313h2M444 313h2M488 313h2M508 313h2M552 313h2M572 313h2M616 313h2M250 314h2M298 314h2M314 314h2M362 314h2M378 314h2M426 314h2M442 314h2M490 314h2M506 314h2M554 314h2M570 314h2M618 314h2M248 315h2M300 315h2M312 315h2M364 315h2M376 315h2M428 315h2M440 315h2M492 315h2M504 315h2M556 315h2M568 315h2M620 315h2M246 316h2M302 316h2M310 316h2M366 316h2M374 316h2M430 316h2M438 316h2M494 316h2M502 316h2M558 316h2M566 316h2M622 316h2M244 317h2M304 317h2M308 317h2M368 317h2M372 317h2M432 317h2M436 317h2M496 317h2M500 317h2M560 317h2M564 317h2M624 317h2M242 318h2M306 318h2M370 318h2M434 318h2M498 318h2M562 318h2M626 318h2M240 319h2M244 319h2M304 319h2M308 319h2M368 319h2M372 319h2M432 319h2M436 319h2M496 319h2M500 319h2M560 319h2M564 319h2M624 319h2M628 319h2M238 320h2M246 320h2M302 320h2M310 320h2M366 320h2M374 320h2M430 320h2M438 320h2M494 320h2M502 320h2M558 320h2M566 320h2M622 320h2M630 320h2M236 321h2M248 321h2M300 321h2M312 321h2M364 321h2M376 321h2M428 321h2M440 321h2M492 321h2M504 321h2M556 321h2M568 321h2M620 321h2M632 321h2M234 322h2M250 322h2M298 322h2M314 322h2M362 322h2M378 322h2M426 322h2M442 322h2M490 322h2M506 322h2M554 322h2M570 322h2M618 322h2M634 322h2M232 323h2M252 323h2M296 323h2M316 323h2M360 323h2M380 323h2M424 323h2M444 323h2M488 323h2M508 323h2M552 323h2M572 323h2M616 323h2M636 323h2M230 324h2M254 324h2M294 324h2M318 324h2M358 324h2M382 324h2M422 324h2M446 324h2M486 324h2M510 324h2M550 324h2M574 324h2M614 324h2M638 324h2M228 325h2M256 325h2M292 325h2M320 325h2M356 325h2M384 325h2M420 325h2M448 325h2M484 325h2M512 325h2M548 325h2M576 325h2M612 325h2M640 325h2M226 326h2M258 326h2M290 326h2M322 326h2M354 326h2M386 326h2M418 326h2M450 326h2M482 326h2M514 326h2M546 326h2M578 326h2M610 326h2M642 326h2M224 327h2M260 327h2M288 327h2M324 327h2M352 327h2M388 327h2M416 327h2M452 327h2M480 327h2M516 327h2M544 327h2M580 327h2M608 327h2M644 327h2M222 328h2M262 328h2M286 328h2M326 328h2M350 328h2M390 328h2M414 328h2M454 328h2M478 328h2M518 328h2M542 328h2M582 328h2M606 328h2M646 328h2M220 329h2M264 329h2M284 329h2M328 329h2M348 329h2M392 329h2M412 329h2M456 329h2M476 329h2M520 329h2M540 329h2M584 329h2M604 329h2M648 329h2M218 330h2M266 330h2M282 330h2M330 330h2M346 330h2M394 330h2M410 330h2M458 330h2M474 330h2M522 330h2M538 330h2M586 330h2M602 330h2M650 330h2M216 331h2M268 331h2M280 331h2M332 331h2M344 331h2M396 331h2M408 331h2M460 331h2M472 331h2M524 331h2M536 331h2M588 331h2M600 331h2M652 331h2M214 332h2M270 332h2M278 332h2M334 332h2M342 332h2M398 332h2M406 332h2M462 332h2M470 332h2M526 332h2M534 332h2M590 332h2M598 332h2M654 332h2M212 333h2M272 333h2M276 333h2M336 333h2M340 333h2M400 333h2M404 333h2M464 333h2M468 333h2M528 333h2M532 333h2M592 333h2M596 333h2M656 333h2M210 334h2M274 334h2M338 334h2M402 334h2M466 334h2M530 334h2M594 334h2M658 334h2M208 335h2M212 335h2M272 335h2M276 335h2M336 335h2M340 335h2M400 335h2M404 335h2M464 335h2M468 335h2M528 335h2M532 335h2M592 335h2M596 335h2M656 335h2M660 335h2M206 336h2M214 336h2M270 336h2M278 336h2M334 336h2M342 336h2M398 336h2M406 336h2M462 336h2M470 336h2M526 336h2M534 336h2M590 336h2M598 336h2M654 336h2M662 336h2M204 337h2M216 337h2M268 337h2M280 337h2M332 337h2M344 337h2M396 337h2M408 337h2M460 337h2M472 337h2M524 337h2M536 337h2M588 337h2M600 337h2M652 337h2M664 337h2M202 338h2M218 338h2M266 338h2M282 338h2M330 338h2M346 338h2M394 338h2M410 338h2M458 338h2M474 338h2M522 338h2M538 338h2M586 338h2M602 338h2M650 338h2M666 338h2M200 339h2M220 339h2M264 339h2M284 339h2M328 339h2M348 339h2M392 339h2M412 339h2M456 339h2M476 339h2M520 339h2M540 339h2M584 339h2M604 339h2M648 339h2M668 339h2M198 340h2M222 340h2M262 340h2M286 340h2M326 340h2M350 340h2M390 340h2M414 340h2M454 340h2M478 340h2M518 340h2M542 340h2M582 340h2M606 340h2M646 340h2M670 340h2M196 341h2M224 341h2M260 341h2M288 341h2M324 341h2M352 341h2M388 341h2M416 341h2M452 341h2M480 341h2M516 341h2M544 341h2M580 341h2M608 341h2M644 341h2M672 341h2M194 342h2M226 342h2M258 342h2M290 342h2M322 342h2M354 342h2M386 342h2M418 342h2M450 342h2M482 342h2M514 342h2M546 342h2M578 342h2M610 342h2M642 342h2M674 342h2M192 343h2M228 343h2M256 343h2M292 343h2M320 343h2M356 343h2M384 343h2M420 343h2M448 343h2M484 343h2M512 343h2M548 343h2M576 343h2M612 343h2M640 343h2M676 343h2M190 344h2M230 344h2M254 344h2M294 344h2M318 344h2M358 344h2M382 344h2M422 344h2M446 344h2M486 344h2M510 344h2M550 344h2M574 344h2M614 344h2M638 344h2M678 344h2M188 345h2M232 345h2M252 345h2M296 345h2M316 345h2M360 345h2M380 345h2M424 345h2M444 345h2M488 345h2M508 345h2M552 345h2M572 345h2M616 345h2M636 345h2M680 345h2M186 346h2M234 346h2M250 346h2M298 346h2M314 346h2M362 346h2M378 346h2M426 346h2M442 346h2M490 346h2M506 346h2M554 346h2M570 346h2M618 346h2M634 346h2M682 346h2M184 347h2M236 347h2M248 347h2M300 347h2M312 347h2M364 347h2M376 347h2M428 347h2M440 347h2M492 347h2M504 347h2M556 347h2M568 347h2M620 347h2M632 347h2M684 347h2M182 348h2M238 348h2M246 348h2M302 348h2M310 348h2M366 348h2M374 348h2M430 348h2M438 348h2M494 348h2M502 348h2M558 348h2M566 348h2M622 348h2M630 348h2M686 348h2M180 349h2M240 349h2M244 349h2M304 349h2M308 349h2M368 349h2M372 349h2M432 349h2M436 349h2M496 349h2M500 349h2M560 349h2M564 349h2M624 349h2M628 349h2M688 349h2M178 350h2M242 350h2M306 350h2M370 350h2M434 350h2M498 350h2M562 350h2M626 350h2M690 350h2M176 351h2M180 351h2M240 351h2M244 351h2M304 351h2M308 351h2M368 351h2M372 351h2M432 351h2M436 351h2M496 351h2M500 351h2M560 351h2M564 351h2M624 351h2M628 351h2M688 351h2M692 351h2M174 352h2M182 352h2M238 352h2M246 352h2M302 352h2M310 352h2M366 352h2M374 352h2M430 352h2M438 352h2M494 352h2M502 352h2M558 352h2M566 352h2M622 352h2M630 352h2M686 352h2M694 352h2M172 353h2M184 353h2M236 353h2M248 353h2M300 353h2M312 353h2M364 353h2M376 353h2M428 353h2M440 353h2M492 353h2M504 353h2M556 353h2M568 353h2M620 353h2M632 353h2M684 353h2M696 353h2M170 354h2M186 354h2M234 354h2M250 354h2M298 354h2M314 354h2M362 354h2M378 354h2M426 354h2M442 354h2M490 354h2M506 354h2M554 354h2M570 354h2M618 354h2M634 354h2M682 354h2M698 354h2M168 355h2M188 355h2M232 355h2M252 355h2M296 355h2M316 355h2M360 355h2M380 355h2M424 355h2M444 355h2M488 355h2M508 355h2M552 355h2M572 355h2M616 355h2M636 355h2M680 355h2M700 355h2M166 356h2M190 356h2M230 356h2M254 356h2M294 356h2M318 356h2M358 356h2M382 356h2M422 356h2M446 356h2M486 356h2M510 356h2M550 356h2M574 356h2M614 356h2M638 356h2M678 356h2M702 356h2M164 357h2M192 357h2M228 357h2M256 357h2M292 357h2M320 357h2M356 357h2M384 357h2M420 357h2M448 357h2M484 357h2M512 357h2M548 357h2M576 357h2M612 357h2M640 357h2M676 357h2M704 357h2M162 358h2M194 358h2M226 358h2M258 358h2M290 358h2M322 358h2M354 358h2M386 358h2M418 358h2M450 358h2M482 358h2M514 358h2M546 358h2M578 358h2M610 358h2M642 358h2M674 358h2M706 358h2M160 359h2M196 359h2M224 359h2M260 359h2M288 359h2M324 359h2M352 359h2M388 359h2M416 359h2M452 359h2M480 359h2M516 359h2M544 359h2M580 359h2M608 359h2M644 359h2M672 359h2M708 359h2M158 360h2M198 360h2M222 360h2M262 360h2M286 360h2M326 360h2M350 360h2M390 360h2M414 360h2M454 360h2M478 360h2M518 360h2M542 360h2M582 360h2M606 360h2M646 360h2M670 360h2M710 360h2M156 361h2M200 361h2M220 361h2M264 361h2M284 361h2M328 361h2M348 361h2M392 361h2M412 361h2M456 361h2M476 361h2M520 361h2M540 361h2M584 361h2M604 361h2M648 361h2M668 361h2M712 361h2M154 362h2M202 362h2M218 362h2M266 362h2M282 362h2M330 362h2M346 362h2M394 362h2M410 362h2M458 362h2M474 362h2M522 362h2M538 362h2M586 362h2M602 362h2M650 362h2M666 362h2M714 362h2M152 363h2M204 363h2M216 363h2M268 363h2M280 363h2M332 363h2M344 363h2M396 363h2M408 363h2M460 363h2M472 363h2M524 363h2M536 363h2M588 363h2M600 363h2M652 363h2M664 363h2M716 363h2M150 364h2M206 364h2M214 364h2M270 364h2M278 364h2M334 364h2M342 364h2M398 364h2M406 364h2M462 364h2M470 364h2M526 364h2M534 364h2M590 364h2M598 364h2M654 364h2M662 364h2M718 364h2M148 365h2M208 365h2M212 365h2M272 365h2M276 365h2M336 365h2M340 365h2M400 365h2M404 365h2M464 365h2M468 365h2M528 365h2M532 365h2M592 365h2M596 365h2M656 365h2M660 365h2M720 365h2M146 366h2M210 366h2M274 366h2M338 366h2M402 366h2M466 366h2M530 366h2M594 366h2M658 366h2M722 366h2M148 367h2M208 367h2M212 367h2M272 367h2M276 367h2M336 367h2M340 367h2M400 367h2M404 367h2M464 367h2M468 367h2M528 367h2M532 367h2M592 367h2M596 367h2M656 367h2M660 367h2M720 367h2M150 368h2M206 368h2M214 368h2M270 368h2M278 368h2M334 368h2M342 368h2M398 368h2M406 368h2M462 368h2M470 368h2M526 368h2M534 368h2M590 368h2M598 368h2M654 368h2M662 368h2M718 368h2M152 369h2M204 369h2M216 369h2M268 369h2M280 369h2M332 369h2M344 369h2M396 369h2M408 369h2M460 369h2M472 369h2M524 369h2M536 369h2M588 369h2M600 369h2M652 369h2M664 369h2M716 369h2M154 370h2M202 370h2M218 370h2M266 370h2M282 370h2M330 370h2M346 370h2M394 370h2M410 370h2M458 370h2M474 370h2M522 370h2M538 370h2M586 370h2M602 370h2M650 370h2M666 370h2M714 370h2M156 371h2M200 371h2M220 371h2M264 371h2M284 371h2M328 371h2M348 371h2M392 371h2M412 371h2M456 371h2M476 371h2M520 371h2M540 371h2M584 371h2M604 371h2M648 371h2M668 371h2M712 371h2M158 372h2M198 372h2M222 372h2M262 372h2M286 372h2M326 372h2M350 372h2M390 372h2M414 372h2M454 372h2M478 372h2M518 372h2M542 372h2M582 372h2M606 372h2M646 372h2M670 372h2M710 372h2M160 373h2M196 373h2M224 373h2M260 373h2M288 373h2M324 373h2M352 373h2M388 373h2M416 373h2M452 373h2M480 373h2M516 373h2M544 373h2M580 373h2M608 373h2M644 373h2M672 373h2M708 373h2M162 374h2M194 374h2M226 374h2M258 374h2M290 374h2M322 374h2M354 374h2M386 374h2M418 374h2M450 374h2M482 374h2M514 374h2M546 374h2M578 374h2M610 374h2M642 374h2M674 374h2M706 374h2M164 375h2M192 375h2M228 375h2M256 375h2M292 375h2M320 375h2M356 375h2M384 375h2M420 375h2M448 375h2M484 375h2M512 375h2M548 375h2M576 375h2M612 375h2M640 375h2M676 375h2M704 375h2M166 376h2M190 376h2M230 376h2M254 376h2M294 376h2M318 376h2M358 376h2M382 376h2M422 376h2M446 376h2M486 376h2M510 376h2M550 376h2M574 376h2M614 376h2M638 376h2M678 376h2M702 376h2M168 377h2M188 377h2M232 377h2M252 377h2M296 377h2M316 377h2M360 377h2M380 377h2M424 377h2M444 377h2M488 377h2M508 377h2M552 377h2M572 377h2M616 377h2M636 377h2M680 377h2M700 377h2M170 378h2M186 378h2M234 378h2M250 378h2M298 378h2M314 378h2M362 378h2M378 378h2M426 378h2M442 378h2M490 378h2M506 378h2M554 378h2M570 378h2M618 378h2M634 378h2M682 378h2M698 378h2M172 379h2M184 379h2M236 379h2M248 379h2M300 379h2M312 379h2M364 379h2M376 379h2M428 379h2M440 379h2M492 379h2M504 379h2M556 379h2M568 379h2M620 379h2M632 379h2M684 379h2M696 379h2M174 380h2M182 380h2M238 380h2M246 380h2M302 380h2M310 380h2M366 380h2M374 380h2M430 380h2M438 380h2M494 380h2M502 380h2M558 380h2M566 380h2M622 380h2M630 380h2M686 380h2M694 380h2M176 381h2M180 381h2M240 381h2M244 381h2M304 381h2M308 381h2M368 381h2M372 381h2M432 381h2M436 381h2M496 381h2M500 381h2M560 381h2M564 381h2M624 381h2M628 381h2M688 381h2M692 381h2M178 382h2M242 382h2M306 382h2M370 382h2M434 382h2M498 382h2M562 382h2M626 382h2M690 382h2M180 383h2M240 383h2M244 383h2M304 383h2M308 383h2M368 383h2M372 383h2M432 383h2M436 383h2M496 383h2M500 383h2M560 383h2M564 383h2M624 383h2M628 383h2M688 383h2M182 384h2M238 384h2M246 384h2M302 384h2M310 384h2M366 384h2M374 384h2M430 384h2M438 384h2M494 384h2M502 384h2M558 384h2M566 384h2M622 384h2M630 384h2M686 384h2M184 385h2M236 385h2M248 385h2M300 385h2M312 385h2M364 385h2M376 385h2M428 385h2M440 385h2M492 385h2M504 385h2M556 385h2M568 385h2M620 385h2M632 385h2M684 385h2M186 386h2M234 386h2M250 386h2M298 386h2M314 386h2M362 386h2M378 386h2M426 386h2M442 386h2M490 386h2M506 386h2M554 386h2M570 386h2M618 386h2M634 386h2M682 386h2M188 387h2M232 387h2M252 387h2M296 387h2M316 387h2M360 387h2M380 387h2M424 387h2M444 387h2M488 387h2M508 387h2M552 387h2M572 387h2M616 387h2M636 387h2M680 387h2M190 388h2M230 388h2M254 388h2M294 388h2M318 388h2M358 388h2M382 388h2M422 388h2M446 388h2M486 388h2M510 388h2M550 388h2M574 388h2M614 388h2M638 388h2M678 388h2M192 389h2M228 389h2M256 389h2M292 389h2M320 389h2M356 389h2M384 389h2M420 389h2M448 389h2M484 389h2M512 389h2M548 389h2M576 389h2M612 389h2M640 389h2M676 389h2M194 390h2M226 390h2M258 390h2M290 390h2M322 390h2M354 390h2M386 390h2M418 390h2M450 390h2M482 390h2M514 390h2M546 390h2M578 390h2M610 390h2M642 390h2M674 390h2M196 391h2M224 391h2M260 391h2M288 391h2M324 391h2M352 391h2M388 391h2M416 391h2M452 391h2M480 391h2M516 391h2M544 391h2M580 391h2M608 391h2M644 391h2M672 391h2M198 392h2M222 392h2M262 392h2M286 392h2M326 392h2M350 392h2M390 392h2M414 392h2M454 392h2M478 392h2M518 392h2M542 392h2M582 392h2M606 392h2M646 392h2M670 392h2M200 393h2M220 393h2M264 393h2M284 393h2M328 393h2M348 393h2M392 393h2M412 393h2M456 393h2M476 393h2M520 393h2M540 393h2M584 393h2M604 393h2M648 393h2M668 393h2M202 394h2M218 394h2M266 394h2M282 394h2M330 394h2M346 394h2M394 394h2M410 394h2M458 394h2M474 394h2M522 394h2M538 394h2M586 394h2M602 394h2M650 394h2M666 394h2M204 395h2M216 395h2M268 395h2M280 395h2M332 395h2M344 395h2M396 395h2M408 395h2M460 395h2M472 395h2M524 395h2M536 395h2M588 395h2M600 395h2M652 395h2M664 395h2M206 396h2M214 396h2M270 396h2M278 396h2M334 396h2M342 396h2M398 396h2M406 396h2M462 396h2M470 396h2M526 396h2M534 396h2M590 396h2M598 396h2M654 396h2M662 396h2M208 397h2M212 397h2M272 397h2M276 397h2M336 397h2M340 397h2M400 397h2M404 397h2M464 397h2M468 397h2M528 397h2M532 397h2M592 397h2M596 397h2M656 397h2M660 397h2M210 398h2M274 398h2M338 398h2M402 398h2M466 398h2M530 398h2M594 398h2M658 398h2M212 399h2M272 399h2M276 399h2M336 399h2M340 399h2M400 399h2M404 399h2M464 399h2M468 399h2M528 399h2M532 399h2M592 399h2M596 399h2M656 399h2M214 400h2M270 400h2M278 400h2M334 400h2M342 400h2M398 400h2M406 400h2M462 400h2M470 400h2M526 400h2M534 400h2M590 400h2M598 400h2M654 400h2M216 401h2M268 401h2M280 401h2M332 401h2M344 401h2M396 401h2M408 401h2M460 401h2M472 401h2M524 401h2M536 401h2M588 401h2M600 401h2M652 401h2M218 402h2M266 402h2M282 402h2M330 402h2M346 402h2M394 402h2M410 402h2M458 402h2M474 402h2M522 402h2M538 402h2M586 402h2M602 402h2M650 402h2M220 403h2M264 403h2M284 403h2M328 403h2M348 403h2M392 403h2M412 403h2M456 403h2M476 403h2M520 403h2M540 403h2M584 403h2M604 403h2M648 403h2M222 404h2M262 404h2M286 404h2M326 404h2M350 404h2M390 404h2M414 404h2M454 404h2M478 404h2M518 404h2M542 404h2M582 404h2M606 404h2M646 404h2M224 405h2M260 405h2M288 405h2M324 405h2M352 405h2M388 405h2M416 405h2M452 405h2M480 405h2M516 405h2M544 405h2M580 405h2M608 405h2M644 405h2M226 406h2M258 406h2M290 406h2M322 406h2M354 406h2M386 406h2M418 406h2M450 406h2M482 406h2M514 406h2M546 406h2M578 406h2M610 406h2M642 406h2M228 407h2M256 407h2M292 407h2M320 407h2M356 407h2M384 407h2M420 407h2M448 407h2M484 407h2M512 407h2M548 407h2M576 407h2M612 407h2M640 407h2M230 408h2M254 408h2M294 408h2M318 408h2M358 408h2M382 408h2M422 408h2M446 408h2M486 408h2M510 408h2M550 408h2M574 408h2M614 408h2M638 408h2M232 409h2M252 409h2M296 409h2M316 409h2M360 409h2M380 409h2M424 409h2M444 409h2M488 409h2M508 409h2M552 409h2M572 409h2M616 409h2M636 409h2M234 410h2M250 410h2M298 410h2M314 410h2M362 410h2M378 410h2M426 410h2M442 410h2M490 410h2M506 410h2M554 410h2M570 410h2M618 410h2M634 410h2M236 411h2M248 411h2M300 411h2M312 411h2M364 411h2M376 411h2M428 411h2M440 411h2M492 411h2M504 411h2M556 411h2M568 411h2M620 411h2M632 411h2M238 412h2M246 412h2M302 412h2M310 412h2M366 412h2M374 412h2M430 412h2M438 412h2M494 412h2M502 412h2M558 412h2M566 412h2M622 412h2M630 412h2M240 413h2M244 413h2M304 413h2M308 413h2M368 413h2M372 413h2M432 413h2M436 413h2M496 413h2M500 413h2M560 413h2M564 413h2M624 413h2M628 413h2M242 414h2M306 414h2M370 414h2M434 414h2M498 414h2M562 414h2M626 414h2M244 415h2M304 415h2M308 415h2M368 415h2M372 415h2M432 415h2M436 415h2M496 415h2M500 415h2M560 415h2M564 415h2M624 415h2M246 416h2M302 416h2M310 416h2M366 416h2M374 416h2M430 416h2M438 416h2M494 416h2M502 416h2M558 416h2M566 416h2M622 416h2M248 417h2M300 417h2M312 417h2M364 417h2M376 417h2M428 417h2M440 417h2M492 417h2M504 417h2M556 417h2M568 417h2M620 417h2M250 418h2M298 418h2M314 418h2M362 418h2M378 418h2M426 418h2M442 418h2M490 418h2M506 418h2M554 418h2M570 418h2M618 418h2M252 419h2M296 419h2M316 419h2M360 419h2M380 419h2M424 419h2M444 419h2M488 419h2M508 419h2M552 419h2M572 419h2M616 419h2M254 420h2M294 420h2M318 420h2M358 420h2M382 420h2M422 420h2M446 420h2M486 420h2M510 420h2M550 420h2M574 420h2M614 420h2M256 421h2M292 421h2M320 421h2M356 421h2M384 421h2M420 421h2M448 421h2M484 421h2M512 421h2M548 421h2M576 421h2M612 421h2M258 422h2M290 422h2M322 422h2M354 422h2M386 422h2M418 422h2M450 422h2M482 422h2M514 422h2M546 422h2M578 422h2M610 422h2M260 423h2M288 423h2M324 423h2M352 423h2M388 423h2M416 423h2M452 423h2M480 423h2M516 423h2M544 423h2M580 423h2M608 423h2M262 424h2M286 424h2M326 424h2M350 424h2M390 424h2M414 424h2M454 424h2M478 424h2M518 424h2M542 424h2M582 424h2M606 424h2M264 425h2M284 425h2M328 425h2M348 425h2M392 425h2M412 425h2M456 425h2M476 425h2M520 425h2M540 425h2M584 425h2M604 425h2M266 426h2M282 426h2M330 426h2M346 426h2M394 426h2M410 426h2M458 426h2M474 426h2M522 426h2M538 426h2M586 426h2M602 426h2M268 427h2M280 427h2M332 427h2M344 427h2M396 427h2M408 427h2M460 427h2M472 427h2M524 427h2M536 427h2M588 427h2M600 427h2M270 428h2M278 428h2M334 428h2M342 428h2M398 428h2M406 428h2M462 428h2M470 428h2M526 428h2M534 428h2M590 428h2M598 428h2M272 429h2M276 429h2M336 429h2M340 429h2M400 429h2M404 429h2M464 429h2M468 429h2M528 429h2M532 429h2M592 429h2M596 429h2M274 430h2M338 430h2M402 430h2M466 430h2M530 430h2M594 430h2M276 431h2M336 431h2M340 431h2M400 431h2M404 431h2M464 431h2M468 431h2M528 431h2M532 431h2M592 431h2M278 432h2M334 432h2M342 432h2M398 432h2M406 432h2M462 432h2M470 432h2M526 432h2M534 432h2M590 432h2M280 433h2M332 433h2M344 433h2M396 433h2M408 433h2M460 433h2M472 433h2M524 433h2M536 433h2M588 433h2M282 434h2M330 434h2M346 434h2M394 434h2M410 434h2M458 434h2M474 434h2M522 434h2M538 434h2M586 434h2M284 435h2M328 435h2M348 435h2M392 435h2M412 435h2M456 435h2M476 435h2M520 435h2M540 435h2M584 435h2M286 436h2M326 436h2M350 436h2M390 436h2M414 436h2M454 436h2M478 436h2M518 436h2M542 436h2M582 436h2M288 437h2M324 437h2M352 437h2M388 437h2M416 437h2M452 437h2M480 437h2M516 437h2M544 437h2M580 437h2M290 438h2M322 438h2M354 438h2M386 438h2M418 438h2M450 438h2M482 438h2M514 438h2M546 438h2M578 438h2M292 439h2M320 439h2M356 439h2M384 439h2M420 439h2M448 439h2M484 439h2M512 439h2M548 439h2M576 439h2M294 440h2M318 440h2M358 440h2M382 440h2M422 440h2M446 440h2M486 440h2M510 440h2M550 440h2M574 440h2M296 441h2M316 441h2M360 441h2M380 441h2M424 441h2M444 441h2M488 441h2M508 441h2M552 441h2M572 441h2M298 442h2M314 442h2M362 442h2M378 442h2M426 442h2M442 442h2M490 442h2M506 442h2M554 442h2M570 442h2M300 443h2M312 443h2M364 443h2M376 443h2M428 443h2M440 443h2M492 443h2M504 443h2M556 443h2M568 443h2M302 444h2M310 444h2M366 444h2M374 444h2M430 444h2M438 444h2M494 444h2M502 444h2M558 444h2M566 444h2M304 445h2M308 445h2M368 445h2M372 445h2M432 445h2M436 445h2M496 445h2M500 445h2M560 445h2M564 445h2M306 446h2M370 446h2M434 446h2M498 446h2M562 446h2M308 447h2M368 447h2M372 447h2M432 447h2M436 447h2M496 447h2M500 447h2M560 447h2M310 448h2M366 448h2M374 448h2M430 448h2M438 448h2M494 448h2M502 448h2M558 448h2M312 449h2M364 449h2M376 449h2M428 449h2M440 449h2M492 449h2M504 449h2M556 449h2M314 450h2M362 450h2M378 450h2M426 450h2M442 450h2M490 450h2M506 450h2M554 450h2M316 451h2M360 451h2M380 451h2M424 451h2M444 451h2M488 451h2M508 451h2M552 451h2M318 452h2M358 452h2M382 452h2M422 452h2M446 452h2M486 452h2M510 452h2M550 452h2M320 453h2M356 453h2M384 453h2M420 453h2M448 453h2M484 453h2M512 453h2M548 453h2M322 454h2M354 454h2M386 454h2M418 454h2M450 454h2M482 454h2M514 454h2M546 454h2M324 455h2M352 455h2M388 455h2M416 455h2M452 455h2M480 455h2M516 455h2M544 455h2M326 456h2M350 456h2M390 456h2M414 456h2M454 456h2M478 456h2M518 456h2M542 456h2M328 457h2M348 457h2M392 457h2M412 457h2M456 457h2M476 457h2M520 457h2M540 457h2M330 458h2M346 458h2M394 458h2M410 458h2M458 458h2M474 458h2M522 458h2M538 458h2M332 459h2M344 459h2M396 459h2M408 459h2M460 459h2M472 459h2M524 459h2M536 459h2M334 460h2M342 460h2M398 460h2M406 460h2M462 460h2M470 460h2M526 460h2M534 460h2M336 461h2M340 461h2M400 461h2M404 461h2M464 461h2M468 461h2M528 461h2M532 461h2M338 462h2M402 462h2M466 462h2M530 462h2M340 463h2M400 463h2M404 463h2M464 463h2M468 463h2M528 463h2M342 464h2M398 464h2M406 464h2M462 464h2M470 464h2M526 464h2M344 465h2M396 465h2M408 465h2M460 465h2M472 465h2M524 465h2M346 466h2M394 466h2M410 466h2M458 466h2M474 466h2M522 466h2M348 467h2M392 467h2M412 467h2M456 467h2M476 467h2M520 467h2M350 468h2M390 468h2M414 468h2M454 468h2M478 468h2M518 468h2M352 469h2M388 469h2M416 469h2M452 469h2M480 469h2M516 469h2M354 470h2M386 470h2M418 470h2M450 470h2M482 470h2M514 470h2M356 471h2M384 471h2M420 471h2M448 471h2M484 471h2M512 471h2M358 472h2M382 472h2M422 472h2M446 472h2M486 472h2M510 472h2M360 473h2M380 473h2M424 473h2M444 473h2M488 473h2M508 473h2M362 474h2M378 474h2M426 474h2M442 474h2M490 474h2M506 474h2M364 475h2M376 475h2M428 475h2M440 475h2M492 475h2M504 475h2M366 476h2M374 476h2M430 476h2M438 476h2M494 476h2M502 476h2M368 477h2M372 477h2M432 477h2M436 477h2M496 477h2M500 477h2M370 478h2M434 478h2M498 478h2M372 479h2M432 479h2M436 479h2M496 479h2M500 479h1M374 480h2M430 480h2M438 480h2M494 480h2M376 481h2M428 481h2M440 481h2M492 481h2M378 482h2M426 482h2M442 482h2M490 482h2M380 483h2M424 483h2M444 483h2M488 483h2M382 484h2M422 484h2M446 484h2M486 484h2M384 485h2M420 485h2M448 485h2M484 485h2M386 486h2M418 486h2M450 486h2M482 486h2M388 487h2M416 487h2M452 487h2M480 487h2M390 488h2M414 488h2M454 488h2M478 488h2M392 489h2M412 489h2M456 489h2M476 489h2M394 490h2M410 490h2M458 490h2M474 490h2M396 491h2M408 491h2M460 491h2M472 491h2M398 492h2M406 492h2M462 492h2M470 492h2M400 493h2M404 493h2M464 493h2M468 493h2M402 494h2M466 494h2M404 495h2M464 495h2M406 496h2M462 496h2M408 497h2M460 497h2M410 498h2M458 498h2M412 499h2M456 499h2M414 500h2M454 500h2M416 501h2M452 501h2M418 502h2M450 502h2M420 503h2M448 503h2M422 504h2M446 504h2M424 505h2M444 505h2M426 506h2M442 506h2M428 507h2M440 507h2M430 508h2M438 508h2M432 509h2M436 509h2M434 510h2" />
<path stroke="#c3c3c3" d="M370 255h2M498 255h2M368 256h6M496 256h6M366 257h10M494 257h10M364 258h14M492 258h14M362 259h18M490 259h18M360 260h22M488 260h22M358 261h26M486 261h26M356 262h30M484 262h30M354 263h34M482 263h34M352 264h38M480 264h38M350 265h42M478 265h42M348 266h46M476 266h46M346 267h50M474 267h50M344 268h54M472 268h54M342 269h58M470 269h58M340 270h62M468 270h62M338 271h2M342 271h58M470 271h58M530 271h2M336 272h6M344 272h54M472 272h54M528 272h6M334 273h10M346 273h50M474 273h50M526 273h10M332 274h14M348 274h46M476 274h46M524 274h14M330 275h18M350 275h42M478 275h42M522 275h18M328 276h22M352 276h38M480 276h38M520 276h22M326 277h26M354 277h34M482 277h34M518 277h26M324 278h30M356 278h30M484 278h30M516 278h30M322 279h34M358 279h26M486 279h26M514 279h34M320 280h38M360 280h22M488 280h22M512 280h38M318 281h42M362 281h18M490 281h18M510 281h42M316 282h46M364 282h14M492 282h14M508 282h46M314 283h50M366 283h10M494 283h10M506 283h50M312 284h54M368 284h6M496 284h6M504 284h54M310 285h58M370 285h2M498 285h2M502 285h58M308 286h62M500 286h62M306 287h2M310 287h58M502 287h58M562 287h2M304 288h6M312 288h54M504 288h54M560 288h6M302 289h10M314 289h50M506 289h50M558 289h10M300 290h14M316 290h46M508 290h46M556 290h14M298 291h18M318 291h42M510 291h42M554 291h18M296 292h22M320 292h38M512 292h38M552 292h22M294 293h26M322 293h34M514 293h34M550 293h26M292 294h30M324 294h30M516 294h30M548 294h30M290 295h34M326 295h26M518 295h26M546 295h34M288 296h38M328 296h22M520 296h22M544 296h38M286 297h42M330 297h18M522 297h18M542 297h42M284 298h46M332 298h14M524 298h14M540 298h46M282 299h50M334 299h10M526 299h10M538 299h50M280 300h54M336 300h6M528 300h6M536 300h54M278 301h58M338 301h2M530 301h2M534 301h58M276 302h62M532 302h62M274 303h2M278 303h58M534 303h58M594 303h2M272 304h6M280 304h54M536 304h54M592 304h6M270 305h10M282 305h50M538 305h50M590 305h10M268 306h14M284 306h46M540 306h46M588 306h14M266 307h18M286 307h42M542 307h42M586 307h18M264 308h22M288 308h38M544 308h38M584 308h22M262 309h26M290 309h34M546 309h34M582 309h26M260 310h30M292 310h30M548 310h30M580 310h30M258 311h34M294 311h26M550 311h26M578 311h34M256 312h38M296 312h22M552 312h22M576 312h38M254 313h42M298 313h18M554 313h18M574 313h42M252 314h46M300 314h14M556 314h14M572 314h46M250 315h50M302 315h10M558 315h10M570 315h50M248 316h54M304 316h6M560 316h6M568 316h54M246 317h58M306 317h2M562 317h2M566 317h58M244 318h62M564 318h62M242 319h2M246 319h58M566 319h58M626 319h2M240 320h6M248 320h54M568 320h54M624 320h6M238 321h10M250 321h50M570 321h50M622 321h10M236 322h14M252 322h46M572 322h46M620 322h14M234 323h18M254 323h42M574 323h42M618 323h18M232 324h22M256 324h38M576 324h38M616 324h22M230 325h26M258 325h34M578 325h34M614 325h26M228 326h30M260 326h30M580 326h30M612 326h30M226 327h34M262 327h26M582 327h26M610 327h34M224 328h38M264 328h22M584 328h22M608 328h38M222 329h42M266 329h18M586 329h18M606 329h42M220 330h46M268 330h14M588 330h14M604 330h46M218 331h50M270 331h10M590 331h10M602 331h50M216 332h54M272 332h6M592 332h6M600 332h54M214 333h58M274 333h2M594 333h2M598 333h58M212 334h62M596 334h62M210 335h2M214 335h58M598 335h58M658 335h2M208 336h6M216 336h54M600 336h54M656 336h6M206 337h10M218 337h50M602 337h50M654 337h10M204 338h14M220 338h46M604 338h46M652 338h14M202 339h18M222 339h42M606 339h42M650 339h18M200 340h22M224 340h38M608 340h38M648 340h22M198 341h26M226 341h34M610 341h34M646 341h26M196 342h30M228 342h30M612 342h30M644 342h30M194 343h34M230 343h26M614 343h26M642 343h34M192 344h38M232 344h22M616 344h22M640 344h38M190 345h42M234 345h18M618 345h18M638 345h42M188 346h46M236 346h14M620 346h14M636 346h46M186 347h50M238 347h10M622 347h10M634 347h50M184 348h54M240 348h6M624 348h6M632 348h54M182 349h58M242 349h2M626 349h2M630 349h58M180 350h62M628 350h62M178 351h2M182 351h58M630 351h58M690 351h2M176 352h6M184 352h54M632 352h54M688 352h6M174 353h10M186 353h50M634 353h50M686 353h10M172 354h14M188 354h46M636 354h46M684 354h14M170 355h18M190 355h42M638 355h42M682 355h18M168 356h22M192 356h38M640 356h38M680 356h22M166 357h26M194 357h34M642 357h34M678 357h26M164 358h30M196 358h30M644 358h30M676 358h30M162 359h34M198 359h26M646 359h26M674 359h34M160 360h38M200 360h22M648 360h22M672 360h38M158 361h42M202 361h18M650 361h18M670 361h42M156 362h46M204 362h14M652 362h14M668 362h46M154 363h50M206 363h10M654 363h10M666 363h50M152 364h54M208 364h6M656 364h6M664 364h54M150 365h58M210 365h2M658 365h2M662 365h58M148 366h62M660 366h62M150 367h58M662 367h58M152 368h54M664 368h54M154 369h50M666 369h50M156 370h46M668 370h46M158 371h42M670 371h42M160 372h38M672 372h38M162 373h34M674 373h34M164 374h30M676 374h30M166 375h26M678 375h26M168 376h22M680 376h22M170 377h18M682 377h18M172 378h14M684 378h14M174 379h10M686 379h10M176 380h6M688 380h6M178 381h2M690 381h2M338 399h2M530 399h2M336 400h6M528 400h6M334 401h10M526 401h10M332 402h14M524 402h14M330 403h18M522 403h18M328 404h22M520 404h22M326 405h26M518 405h26M324 406h30M516 406h30M322 407h34M514 407h34M320 408h38M512 408h38M318 409h42M510 409h42M316 410h46M508 410h46M314 411h50M506 411h50M312 412h54M504 412h54M310 413h58M502 413h58M308 414h62M500 414h62M310 415h58M370 415h2M498 415h2M502 415h58M312 416h54M368 416h6M496 416h6M504 416h54M314 417h50M366 417h10M494 417h10M506 417h50M316 418h46M364 418h14M492 418h14M508 418h46M318 419h42M362 419h18M490 419h18M510 419h42M320 420h38M360 420h22M488 420h22M512 420h38M322 421h34M358 421h26M486 421h26M514 421h34M324 422h30M356 422h30M484 422h30M516 422h30M326 423h26M354 423h34M482 423h34M518 423h26M328 424h22M352 424h38M480 424h38M520 424h22M330 425h18M350 425h42M478 425h42M522 425h18M332 426h14M348 426h46M476 426h46M524 426h14M334 427h10M346 427h50M474 427h50M526 427h10M336 428h6M344 428h54M472 428h54M528 428h6M338 429h2M342 429h58M470 429h58M530 429h2M340 430h62M468 430h62M342 431h58M470 431h58M344 432h54M472 432h54M346 433h50M474 433h50M348 434h46M476 434h46M350 435h42M478 435h42M352 436h38M480 436h38M354 437h34M482 437h34M356 438h30M484 438h30M358 439h26M486 439h26M360 440h22M488 440h22M362 441h18M490 441h18M364 442h14M492 442h14M366 443h10M494 443h10M368 444h6M496 444h6M370 445h2M498 445h2" />
<path stroke="#7d97a6" d="M402 271h2M466 271h2M400 272h6M464 272h6M398 273h10M462 273h10M396 274h14M460 274h14M394 275h18M458 275h18M392 276h22M456 276h22M390 277h26M454 277h26M388 278h30M452 278h30M386 279h34M450 279h34M384 280h38M448 280h38M382 281h42M446 281h42M380 282h46M444 282h46M378 283h50M442 283h50M376 284h54M440 284h54M374 285h58M438 285h58M372 286h62M436 286h62M370 287h2M374 287h58M438 287h58M498 287h2M368 288h6M376 288h54M440 288h54M496 288h6M366 289h10M378 289h50M442 289h50M494 289h10M364 290h14M380 290h46M444 290h46M492 290h14M362 291h18M382 291h42M446 291h42M490 291h18M360 292h22M384 292h38M448 292h38M488 292h22M358 293h26M386 293h34M450 293h34M486 293h26M356 294h30M388 294h30M452 294h30M484 294h30M354 295h34M390 295h26M454 295h26M482 295h34M352 296h38M392 296h22M456 296h22M480 296h38M350 297h42M394 297h18M458 297h18M478 297h42M348 298h46M396 298h14M460 298h14M476 298h46M346 299h50M398 299h10M462 299h10M474 299h50M344 300h54M400 300h6M464 300h6M472 300h54M342 301h58M402 301h2M466 301h2M470 301h58M340 302h62M468 302h62M338 303h2M342 303h58M470 303h58M530 303h2M336 304h6M344 304h54M472 304h54M528 304h6M334 305h10M346 305h50M474 305h50M526 305h10M332 306h14M348 306h46M476 306h46M524 306h14M330 307h18M350 307h42M478 307h42M522 307h18M328 308h22M352 308h38M480 308h38M520 308h22M326 309h26M354 309h34M482 309h34M518 309h26M324 310h30M356 310h30M484 310h30M516 310h30M322 311h34M358 311h26M486 311h26M514 311h34M320 312h38M360 312h22M488 312h22M512 312h38M318 313h42M362 313h18M490 313h18M510 313h42M316 314h46M364 314h14M492 314h14M508 314h46M314 315h50M366 315h10M494 315h10M506 315h50M312 316h54M368 316h6M496 316h6M504 316h54M310 317h58M370 317h2M498 317h2M502 317h58M308 318h62M500 318h62M306 319h2M310 319h58M502 319h58M562 319h2M304 320h6M312 320h54M504 320h54M560 320h6M302 321h10M314 321h50M506 321h50M558 321h10M300 322h14M316 322h46M508 322h46M556 322h14M298 323h18M318 323h42M510 323h42M554 323h18M296 324h22M320 324h38M512 324h38M552 324h22M294 325h26M322 325h34M514 325h34M550 325h26M292 326h30M324 326h30M516 326h30M548 326h30M290 327h34M326 327h26M518 327h26M546 327h34M288 328h38M328 328h22M520 328h22M544 328h38M286 329h42M330 329h18M522 329h18M542 329h42M284 330h46M332 330h14M524 330h14M540 330h46M282 331h50M334 331h10M526 331h10M538 331h50M280 332h54M336 332h6M528 332h6M536 332h54M278 333h58M338 333h2M530 333h2M534 333h58M276 334h62M532 334h62M274 335h2M278 335h58M534 335h58M594 335h2M272 336h6M280 336h54M536 336h54M592 336h6M270 337h10M282 337h50M538 337h50M590 337h10M268 338h14M284 338h46M540 338h46M588 338h14M266 339h18M286 339h42M542 339h42M586 339h18M264 340h22M288 340h38M544 340h38M584 340h22M262 341h26M290 341h34M546 341h34M582 341h26M260 342h30M292 342h30M548 342h30M580 342h30M258 343h34M294 343h26M550 343h26M578 343h34M256 344h38M296 344h22M552 344h22M576 344h38M254 345h42M298 345h18M554 345h18M574 345h42M252 346h46M300 346h14M556 346h14M572 346h46M250 347h50M302 347h10M558 347h10M570 347h50M248 348h54M304 348h6M560 348h6M568 348h54M246 349h58M306 349h2M562 349h2M566 349h58M244 350h62M564 350h62M242 351h2M246 351h58M566 351h58M626 351h2M240 352h6M248 352h54M568 352h54M624 352h6M238 353h10M250 353h50M570 353h50M622 353h10M236 354h14M252 354h46M572 354h46M620 354h14M234 355h18M254 355h42M574 355h42M618 355h18M232 356h22M256 356h38M576 356h38M616 356h22M230 357h26M258 357h34M578 357h34M614 357h26M228 358h30M260 358h30M580 358h30M612 358h30M226 359h34M262 359h26M582 359h26M610 359h34M224 360h38M264 360h22M584 360h22M608 360h38M222 361h42M266 361h18M586 361h18M606 361h42M220 362h46M268 362h14M588 362h14M604 362h46M218 363h50M270 363h10M590 363h10M602 363h50M216 364h54M272 364h6M592 364h6M600 364h54M214 365h58M274 365h2M594 365h2M598 365h58M212 366h62M596 366h62M210 367h2M214 367h58M598 367h58M658 367h2M208 368h6M216 368h54M600 368h54M656 368h6M206 369h10M218 369h50M602 369h50M654 369h10M204 370h14M220 370h46M604 370h46M652 370h14M202 371h18M222 371h42M606 371h42M650 371h18M200 372h22M224 372h38M608 372h38M648 372h22M198 373h26M226 373h34M610 373h34M646 373h26M196 374h30M228 374h30M612 374h30M644 374h30M194 375h34M230 375h26M614 375h26M642 375h34M192 376h38M232 376h22M616 376h22M640 376h38M190 377h42M234 377h18M618 377h18M638 377h42M188 378h46M236 378h14M620 378h14M636 378h46M186 379h50M238 379h10M622 379h10M634 379h50M184 380h54M240 380h6M624 380h6M632 380h54M182 381h58M242 381h2M626 381h2M630 381h58M180 382h62M628 382h62M182 383h58M630 383h58M184 384h54M632 384h54M186 385h50M634 385h50M188 386h46M636 386h46M190 387h42M638 387h42M192 388h38M640 388h38M194 389h34M642 389h34M196 390h30M644 390h30M198 391h26M646 391h26M200 392h22M648 392h22M202 393h18M650 393h18M204 394h14M652 394h14M206 395h10M654 395h10M208 396h6M656 396h6M210 397h2M658 397h2M306 415h2M562 415h2M304 416h6M560 416h6M302 417h10M558 417h10M300 418h14M556 418h14M298 419h18M554 419h18M296 420h22M552 420h22M294 421h26M550 421h26M292 422h30M548 422h30M290 423h34M546 423h34M288 424h38M544 424h38M286 425h42M542 425h42M284 426h46M540 426h46M282 427h50M538 427h50M280 428h54M536 428h54M278 429h58M534 429h58M276 430h62M532 430h62M278 431h58M338 431h2M530 431h2M534 431h58M280 432h54M336 432h6M528 432h6M536 432h54M282 433h50M334 433h10M526 433h10M538 433h50M284 434h46M332 434h14M524 434h14M540 434h46M286 435h42M330 435h18M522 435h18M542 435h42M288 436h38M328 436h22M520 436h22M544 436h38M290 437h34M326 437h26M518 437h26M546 437h34M292 438h30M324 438h30M516 438h30M548 438h30M294 439h26M322 439h34M514 439h34M550 439h26M296 440h22M320 440h38M512 440h38M552 440h22M298 441h18M318 441h42M510 441h42M554 441h18M300 442h14M316 442h46M508 442h46M556 442h14M302 443h10M314 443h50M506 443h50M558 443h10M304 444h6M312 444h54M504 444h54M560 444h6M306 445h2M310 445h58M502 445h58M562 445h2M308 446h62M500 446h62M310 447h58M502 447h58M312 448h54M504 448h54M314 449h50M506 449h50M316 450h46M508 450h46M318 451h42M510 451h42M320 452h38M512 452h38M322 453h34M514 453h34M324 454h30M516 454h30M326 455h26M518 455h26M328 456h22M520 456h22M330 457h18M522 457h18M332 458h14M524 458h14M334 459h10M526 459h10M336 460h6M528 460h6M338 461h2M530 461h2" />
</svg>