<?xml version="1.0" encoding="UTF-8" standalone="no"?>
<svg
   viewBox="0 -0.5 65 65"
   shape-rendering="crispEdges"
   version="1.1"
   id="svg10"
   sodipodi:docname="playerIcon.svg"
   inkscape:version="1.2.2 (732a01da63, 2022-12-09)"
   xmlns:inkscape="http://www.inkscape.org/namespaces/inkscape"
   xmlns:sodipodi="http://sodipodi.sourceforge.net/DTD/sodipodi-0.dtd"
   xmlns="http://www.w3.org/2000/svg"
   xmlns:svg="http://www.w3.org/2000/svg">
  <defs
     id="defs14" />
  <sodipodi:namedview
     id="namedview12"
     pagecolor="#505050"
     bordercolor="#ffffff"
     borderopacity="1"
     inkscape:showpageshadow="0"
     inkscape:pageopacity="0"
     inkscape:pagecheckerboard="1"
     inkscape:deskcolor="#505050"
     showgrid="false"
     inkscape:zoom="7.9538462"
     inkscape:cx="32.437137"
     inkscape:cy="22.37911"
     inkscape:window-width="1366"
     inkscape:window-height="697"
     inkscape:window-x="-8"
     inkscape:window-y="-8"
     inkscape:window-maximized="1"
     inkscape:current-layer="svg10" />
  <metadata
     id="metadata2">Made with Pixels to Svg https://codepen.io/shshaw/pen/XbxvNj</metadata>
  <path
     stroke="#000000"
     d="m 49,0 h 2 m 10,0 h 2 M 48,1 h 1 m 2,0 h 3 m 4,0 h 3 m 2,0 h 1 M 47,2 h 1 m 6,0 h 4 m 6,0 h 1 M 47,3 h 1 m 16,0 h 1 M 47,4 h 1 m 16,0 h 1 M 47,5 h 1 m 16,0 h 1 M 47,6 h 1 m 16,0 h 1 M 47,7 h 1 m 16,0 h 1 M 47,8 h 1 m 5,0 h 6 m 5,0 h 1 M 47,9 h 1 m 4,0 h 1 m 6,0 h 1 m 4,0 h 1 m -18,1 h 1 m 3,0 h 1 m 8,0 h 1 m 3,0 h 1 m -17,1 h 1 m 2,0 h 1 m 8,0 h 1 m 2,0 h 1 m -15,1 h 2 m 10,0 h 2 m -42,3 h 3 m -5,1 h 2 m 3,0 h 2 m -8,1 h 1 m 7,0 h 1 m -10,1 h 1 m 9,0 h 1 m -12,1 h 1 m 11,0 h 1 m -13,1 h 1 m 6,0 h 1 m 4,0 h 1 m -14,1 h 1 m 4,0 h 2 m 1,0 h 2 m 4,0 h 1 m -15,1 h 1 m 3,0 h 7 m 3,0 h 1 m -15,1 h 1 m 1,0 h 9 m 3,0 h 1 m -15,1 h 15 m -15,1 h 15 m -15,1 h 15 m -14,1 h 8 m 1,0 h 2 m 1,0 h 1 m -13,1 h 1 m 11,0 h 1 m -12,1 h 1 m 9,0 h 1 m -10,1 h 1 m 7,0 h 1 m -8,1 h 2 m 3,0 h 2 m -5,1 h 3 M 8,34 H 36 M 6,35 h 2 m 9,0 h 2 m 7,0 h 1 m 9,0 h 2 M 4,36 h 2 m 13,0 h 8 m 11,0 h 2 M 3,37 h 1 m 15,0 h 6 m 15,0 h 1 M 2,38 h 1 m 38,0 h 1 M 1,39 h 1 m 40,0 h 1 M 1,40 h 1 m 40,0 h 1 M 0,41 h 1 m 42,0 h 1 M 0,42 h 1 m 42,0 h 1 m 0,1 h 1 m -1,1 h 1 m -1,1 h 1 m -1,1 h 1 M 8,47 h 2 m 34,0 h 1 M 7,48 h 1 m 1,0 h 1 m 24,0 h 1 m 9,0 h 1 M 7,49 h 1 m 1,0 h 1 m 24,0 h 1 m 1,0 h 1 m 7,0 h 1 M 7,50 h 1 m 1,0 h 1 m 24,0 h 1 m 1,0 h 1 m 7,0 h 1 M 7,51 h 1 m 1,0 h 1 m 24,0 h 1 m 1,0 h 1 m 7,0 h 1 M 7,52 h 1 m 1,0 h 1 m 24,0 h 1 m 1,0 h 1 m 7,0 h 1 M 7,53 h 1 m 1,0 h 1 m 24,0 h 1 m 1,0 h 1 m 7,0 h 1 M 7,54 h 1 m 1,0 h 1 m 24,0 h 1 m 1,0 h 1 m 7,0 h 1 M 7,55 h 1 m 1,0 h 1 m 24,0 h 1 m 1,0 h 1 m 7,0 h 1 M 7,56 h 1 m 1,0 h 1 m 24,0 h 1 m 1,0 h 1 m 7,0 h 1 M 7,57 h 1 m 1,0 h 1 m 24,0 h 1 m 1,0 h 1 m 7,0 h 1 M 7,58 h 1 m 1,0 h 1 m 24,0 h 1 m 1,0 h 1 m 7,0 h 1 M 7,59 h 1 m 1,0 h 1 m 24,0 h 1 m 1,0 h 1 m 7,0 h 1 M 7,60 h 1 m 1,0 h 1 m 24,0 h 1 m 1,0 h 1 m 7,0 h 1 M 7,61 h 1 m 1,0 h 1 m 24,0 h 1 m 1,0 h 1 m 7,0 h 1 M 7,62 h 1 m 1,0 h 1 m 14,0 h 1 m 9,0 h 1 m 1,0 h 1 m 7,0 h 1 M 7,63 h 1 m 1,0 h 1 m 24,0 h 1 m 1,0 h 1 m 7,0 h 1 M 7,64 h 1 m 1,0 h 1 m 24,0 h 1 m 1,0 h 1 m 7,0 h 1"
     id="path4"
     style="display:inline" />
  <path
     stroke="rgba(0,0,0,0.996078431372549)"
     d="m 49,1 h 2 m 10,0 h 2 M 48,2 h 6 m 4,0 h 6 M 48,3 h 12 m 1,0 h 3 M 48,4 h 2 m 1,0 h 10 m 1,0 h 2 M 48,5 h 1 m 3,0 h 7 m 1,0 h 4 M 48,6 h 2 m 1,0 h 9 m 1,0 h 3 M 48,7 H 64 M 48,8 h 5 m 6,0 h 5 M 48,9 h 4 m 8,0 h 4 m -16,1 h 3 m 10,0 h 3 m -15,1 h 2 m 10,0 h 2 m -42,5 h 3 m -5,1 h 7 m -8,1 h 9 m -10,1 h 11 m -11,1 h 6 m 1,0 h 4 m -12,1 h 4 m 2,0 h 1 m 2,0 h 4 m -13,1 h 3 m 7,0 h 3 m -13,1 h 1 m 9,0 h 3 m -5,4 h 1 m 2,0 h 1 m -11,1 h 11 m -10,1 h 9 m -8,1 h 7 m -5,1 h 3"
     id="path6"
     style="display:inline" />
  <path
     stroke="rgba(0,0,0,0.9921568627450981)"
     d="m 8,35 h 9 m 2,0 h 7 m 1,0 h 9 M 6,36 h 13 m 8,0 H 38 M 4,37 h 15 m 6,0 H 40 M 3,38 H 41 M 2,39 H 42 M 2,40 H 42 M 1,41 H 43 M 1,42 H 43 M 0,43 H 44 M 0,44 H 44 M 0,45 H 44 M 0,46 H 44 M 0,47 h 8 m 2,0 h 25 m 1,0 h 8 M 0,48 h 7 m 3,0 h 24 m 2,0 h 8 M 0,49 h 7 m 3,0 h 24 m 3,0 h 7 M 0,50 h 7 m 3,0 h 24 m 3,0 h 7 M 0,51 h 7 m 3,0 h 24 m 3,0 h 7 M 0,52 h 7 m 3,0 h 24 m 3,0 h 7 M 0,53 h 7 m 3,0 h 24 m 3,0 h 7 M 0,54 h 7 m 3,0 h 24 m 3,0 h 7 M 0,55 h 7 m 3,0 h 24 m 3,0 h 7 M 0,56 h 7 m 3,0 h 24 m 3,0 h 7 M 0,57 h 7 m 3,0 h 24 m 3,0 h 7 M 0,58 h 7 m 3,0 h 24 m 3,0 h 7 M 0,59 h 7 m 3,0 h 24 m 3,0 h 7 M 0,60 h 7 m 3,0 h 24 m 3,0 h 7 M 0,61 h 7 m 3,0 h 24 m 3,0 h 7 M 0,62 h 7 m 3,0 h 14 m 1,0 h 9 m 3,0 h 7 M 0,63 h 7 m 3,0 h 24 m 3,0 h 7 M 0,64 h 7 m 3,0 h 24 m 3,0 h 7"
     id="path8"
     style="display:inline" />
  <path
     style="fill:#000000;stroke:#8b0000;stroke-width:0.125725"
     d="M 16.092843,27.973888 V 26.968085 H 15.589942 15.087041 V 24.01354 21.058994 h 0.440038 0.440039 v 1.508704 1.508704 h 0.565764 0.565764 V 23.573501 23.0706 h 1.005803 1.005802 v -0.502902 -0.502901 h 0.502902 0.502901 v -0.502901 -0.502902 h 0.94294 0.94294 v 0.502902 0.502901 h 0.502902 0.502901 v -1.005803 -1.005803 h 0.440039 c 0.429561,0 0.440038,0.01197 0.440038,0.502902 v 0.502901 h 0.502902 0.502901 v 0.502902 0.502901 h 0.502901 0.502902 v 1.005803 1.005802 h 1.571566 1.571567 v -1.508704 -1.508704 h 0.440039 0.440039 v 2.954546 2.954545 h -0.502902 -0.502901 v 1.005803 1.005803 H 28.476789 28.03675 v -1.005803 -1.005803 h -0.565764 -0.565764 v 0.502901 0.502902 h -0.94294 -0.94294 v -0.502902 -0.502901 h -0.565764 -0.565764 v 0.502901 0.502902 h -3.457446 -3.457447 v 0.502901 c 0,0.490928 -0.01048,0.502902 -0.440039,0.502902 h -0.440039 z"
     id="path243"
     transform="translate(0,-0.5)" />
</svg>
