<svg xmlns="http://www.w3.org/2000/svg" viewBox="0 -0.5 29 29" shape-rendering="crispEdges">
<metadata>Made with Pixels to Svg https://codepen.io/shshaw/pen/XbxvNj</metadata>
<path stroke="#000000" d="M10 0h9M8 1h13M6 2h17M5 3h19M4 4h21M3 5h23M2 6h25M2 7h11M16 7h11M1 8h11M17 8h11M1 9h10M18 9h10M0 10h11M18 10h11M0 11h11M18 11h11M0 12h12M17 12h12M0 13h13M16 13h13M0 14h29M0 15h29M0 16h29M0 17h10M19 17h10M0 18h9M20 18h9M1 19h7M21 19h7M1 20h7M21 20h7M2 21h6M21 21h6M2 22h6M21 22h6M3 23h5M21 23h5M4 24h21M5 25h19M6 26h17M8 27h13M10 28h9" />
</svg>